<?xml version="1.0" encoding="utf-8"?>
<!-- Generator: Adobe Illustrator 24.2.3, SVG Export Plug-In . SVG Version: 6.00 Build 0)  -->
<svg version="1.1" xmlns="http://www.w3.org/2000/svg" xmlns:xlink="http://www.w3.org/1999/xlink" x="0px" y="0px"
	 viewBox="0 0 335 186.5" style="enable-background:new 0 0 335 186.5;" xml:space="preserve">
<style type="text/css">
	.st0{fill:#FFFFFF;}
	.st1{fill-rule:evenodd;clip-rule:evenodd;fill:#FFFFFF;}
	.st2{display:none;fill-rule:evenodd;clip-rule:evenodd;fill:#008C3E;}
	.st3{fill:#FFFFFE;}
</style>
<g id="Layer_2">
</g>
<g id="Layer_1">
	<g>
		<g>
			<rect x="242.5" y="93.5" class="st0" width="5.2" height="39.2"/>
		</g>
		<g>
			<polygon class="st0" points="291.1,132.6 296.3,132.6 296.3,98.4 306.4,98.4 306.4,93.5 281.1,93.5 281.1,98.4 291.1,98.4 			"/>
		</g>
		<path class="st0" d="M265.9,93.5c-8,0-13.6,5.7-13.6,15.2l0,23.9h5.2l0-14.7v0h16.8l0,14.7h5.2l0-23.9
			C279.6,99.2,274,93.5,265.9,93.5z M274.3,113l-16.8,0v-4.2c0-6.9,3.1-10.5,8.4-10.5c5.3,0,8.4,3.6,8.4,10.5V113z"/>
		<g>
			<path class="st1" d="M239,99.1c-9-9.4-27.5-7.6-32.5,7.7c-0.6,1.9-0.8,3.9-0.9,6.2c0,5.3,2.1,10.1,5.4,13.6
				c6.9,7.2,19.2,9.1,28.3,0.2l-3.4-3.6c-9.9,9.6-24.7,2.3-25-10.2c0-4.5,2.3-9.5,6.7-12.2c4.7-3.1,12.1-3.8,18.2,1.9L239,99.1z"/>
		</g>
		<g>
			<g>
				<path class="st0" d="M153,143.1l0,5.4l-0.9,0l0-5.4L153,143.1z"/>
				<path class="st0" d="M154.9,148.4H154l0-4h0.9v0.6c0.3-0.4,0.6-0.7,1.3-0.7c0.9,0,1.4,0.6,1.4,1.6l0,2.6h-0.9v-2.3
					c0-0.6-0.3-1-0.9-1c-0.5,0-0.9,0.4-0.9,1V148.4z"/>
				<path class="st0" d="M159.6,147.2c0,0.4,0.2,0.5,0.5,0.5c0.2,0,0.4,0,0.6-0.1v0.8c-0.2,0.1-0.5,0.2-0.8,0.2
					c-0.7,0-1.2-0.3-1.2-1.2l0-2.1h-0.5l0-0.8h0.5v-1.1h0.9v1.1h1.1l0,0.8h-1.1L159.6,147.2z"/>
				<path class="st0" d="M163.1,147.8c0.5,0,0.8-0.2,1.1-0.5l0.5,0.5c-0.4,0.5-0.9,0.8-1.7,0.8c-1.2,0-2.1-0.8-2.1-2.1
					c0-1.2,0.8-2.1,2-2.1c1.3,0,1.9,1,1.9,2.2c0,0.1,0,0.2,0,0.3h-3C162,147.4,162.5,147.8,163.1,147.8z M164,146.1
					c-0.1-0.6-0.4-1.1-1-1.1c-0.6,0-1,0.4-1,1.1H164z"/>
				<path class="st0" d="M166.4,148.4h-0.9l0-4h0.9l0,0.9c0.3-0.6,0.7-1,1.4-1v1h-0.1c-0.8,0-1.4,0.5-1.4,1.6L166.4,148.4z"/>
				<path class="st0" d="M169.3,148.4h-0.9v-4h0.9v0.6c0.3-0.4,0.6-0.7,1.3-0.7c0.9,0,1.4,0.6,1.4,1.6l0,2.6h-0.9v-2.3
					c0-0.6-0.3-1-0.9-1c-0.5,0-0.9,0.4-0.9,1V148.4z"/>
				<path class="st0" d="M175.3,148.4v-0.5c-0.3,0.3-0.7,0.6-1.3,0.6c-0.8,0-1.4-0.4-1.4-1.2v0c0-0.9,0.7-1.3,1.6-1.3
					c0.5,0,0.8,0.1,1.1,0.2V146c0-0.6-0.4-0.9-1-0.9c-0.5,0-0.8,0.1-1.2,0.3l-0.3-0.7c0.4-0.2,0.9-0.3,1.5-0.3
					c1.2,0,1.8,0.6,1.8,1.7l0,2.4H175.3z M175.3,146.7c-0.2-0.1-0.6-0.2-0.9-0.2c-0.6,0-0.9,0.2-0.9,0.7v0c0,0.4,0.3,0.6,0.8,0.6
					c0.6,0,1.1-0.3,1.1-0.8V146.7z"/>
				<path class="st0" d="M178.1,147.2c0,0.4,0.2,0.5,0.5,0.5c0.2,0,0.4,0,0.6-0.1l0,0.8c-0.2,0.1-0.5,0.2-0.8,0.2
					c-0.7,0-1.2-0.3-1.2-1.2v-2.1h-0.5v-0.8h0.5l0-1.1h0.9l0,1.1l1.1,0v0.8h-1.1V147.2z"/>
				<path class="st0" d="M179.8,143.8v-0.9h1v0.9H179.8z M179.9,148.4l0-4l0.9,0l0,4H179.9z"/>
				<path class="st0" d="M183.6,148.5c-1.2,0-2.1-0.9-2.1-2.1c0-1.2,0.9-2.1,2.2-2.1c1.2,0,2.2,0.9,2.2,2.1
					C185.8,147.6,184.9,148.5,183.6,148.5z M183.6,145.1c-0.7,0-1.2,0.6-1.2,1.3c0,0.7,0.5,1.3,1.2,1.3c0.8,0,1.2-0.6,1.2-1.3
					C184.8,145.7,184.3,145.1,183.6,145.1z"/>
				<path class="st0" d="M187.3,148.4l-0.9,0l0-4h0.9v0.6c0.3-0.4,0.6-0.7,1.3-0.7c0.9,0,1.4,0.6,1.4,1.6l0,2.6h-0.9l0-2.3
					c0-0.6-0.3-1-0.9-1c-0.5,0-0.9,0.4-0.9,1L187.3,148.4z"/>
				<path class="st0" d="M193.3,148.4v-0.5c-0.3,0.3-0.7,0.6-1.3,0.6c-0.8,0-1.4-0.4-1.4-1.2v0c0-0.9,0.7-1.3,1.6-1.3
					c0.5,0,0.8,0.1,1.1,0.2V146c0-0.6-0.4-0.9-1-0.9c-0.5,0-0.8,0.1-1.2,0.3l-0.3-0.7c0.4-0.2,0.9-0.3,1.5-0.3
					c1.2,0,1.8,0.6,1.8,1.7v2.4H193.3z M193.4,146.7c-0.2-0.1-0.6-0.2-0.9-0.2c-0.6,0-0.9,0.2-0.9,0.7v0c0,0.4,0.3,0.6,0.8,0.6
					c0.6,0,1.1-0.3,1.1-0.8V146.7z"/>
				<path class="st0" d="M195.1,148.4l0-5.6h0.9l0,5.6H195.1z"/>
				<path class="st0" d="M201.5,148.5c-1.6,0-2.7-1.2-2.7-2.8c0-1.5,1.1-2.8,2.8-2.8c1,0,1.6,0.3,2.1,0.8l-0.6,0.7
					c-0.4-0.4-0.9-0.7-1.5-0.7c-1,0-1.8,0.8-1.8,1.9c0,1.1,0.7,1.9,1.8,1.9c0.7,0,1.1-0.3,1.5-0.7l0.6,0.6
					C203.1,148.1,202.5,148.5,201.5,148.5z"/>
				<path class="st0" d="M206.1,147.8c0.5,0,0.8-0.2,1.1-0.5l0.5,0.5c-0.4,0.5-0.9,0.8-1.7,0.8c-1.2,0-2.1-0.9-2.1-2.1
					c0-1.2,0.8-2.1,2-2.1c1.3,0,1.9,1,1.9,2.2c0,0.1,0,0.2,0,0.3l-3,0C205,147.4,205.5,147.8,206.1,147.8z M207,146.1
					c-0.1-0.6-0.4-1.1-1-1.1c-0.6,0-1,0.4-1.1,1.1L207,146.1z"/>
				<path class="st0" d="M209.4,148.4l-0.9,0l0-4h0.9v0.6c0.3-0.4,0.6-0.7,1.3-0.7c0.9,0,1.4,0.6,1.4,1.6l0,2.6h-0.9l0-2.3
					c0-0.6-0.3-1-0.9-1c-0.5,0-0.9,0.4-0.9,1L209.4,148.4z"/>
				<path class="st0" d="M214.1,147.2c0,0.4,0.2,0.5,0.5,0.5c0.2,0,0.4,0,0.6-0.1l0,0.8c-0.2,0.1-0.5,0.2-0.8,0.2
					c-0.7,0-1.2-0.3-1.2-1.2l0-2.1h-0.5v-0.8h0.5v-1.1l0.9,0l0,1.1h1.1v0.8h-1.1V147.2z"/>
				<path class="st0" d="M217.6,147.7c0.5,0,0.8-0.2,1.1-0.5l0.5,0.5c-0.4,0.5-0.9,0.8-1.7,0.8c-1.2,0-2.1-0.8-2.1-2.1
					c0-1.2,0.8-2.1,2-2.1c1.3,0,1.9,1,1.9,2.2c0,0.1,0,0.2,0,0.3l-3,0C216.5,147.4,217,147.7,217.6,147.7z M218.5,146.1
					c-0.1-0.6-0.4-1.1-1-1.1c-0.6,0-1,0.4-1,1.1L218.5,146.1z"/>
				<path class="st0" d="M220.9,148.4l-0.9,0l0-4h0.9v0.9c0.3-0.6,0.7-1,1.4-1v1h-0.1c-0.8,0-1.4,0.5-1.4,1.6V148.4z"/>
				<path class="st0" d="M227,144.4v0.8H226l0,3.2h-0.9l0-3.2l-0.5,0v-0.8h0.5v-0.3c0-0.9,0.4-1.3,1.2-1.3c0.3,0,0.5,0,0.8,0.1v0.8
					c-0.2-0.1-0.3-0.1-0.5-0.1c-0.4,0-0.5,0.2-0.5,0.6v0.2H227z"/>
				<path class="st0" d="M229.3,148.5c-1.2,0-2.1-0.9-2.1-2.1c0-1.2,0.9-2.1,2.2-2.1c1.2,0,2.2,0.9,2.2,2.1
					C231.4,147.5,230.5,148.5,229.3,148.5z M229.3,145.1c-0.7,0-1.2,0.6-1.2,1.3c0,0.7,0.5,1.3,1.2,1.3c0.8,0,1.2-0.6,1.2-1.3
					C230.5,145.7,230,145.1,229.3,145.1z"/>
				<path class="st0" d="M233,148.4h-0.9l0-4l0.9,0l0,0.9c0.3-0.6,0.7-1,1.4-1v1h-0.1c-0.8,0-1.4,0.5-1.4,1.6V148.4z"/>
				<path class="st0" d="M239.3,148.4h-0.9l0-4.5h-1.7l0-0.9l4.3,0l0,0.9l-1.7,0L239.3,148.4z"/>
				<path class="st0" d="M242,148.4H241l0-4h0.9v0.9c0.3-0.6,0.7-1,1.4-1v1h-0.1c-0.8,0-1.4,0.5-1.4,1.6L242,148.4z"/>
				<path class="st0" d="M245.7,148.5c-1.2,0-2.1-0.9-2.1-2.1c0-1.2,0.9-2.1,2.2-2.1c1.2,0,2.2,0.9,2.2,2.1
					C247.9,147.5,246.9,148.5,245.7,148.5z M245.7,145.1c-0.7,0-1.2,0.6-1.2,1.3c0,0.7,0.5,1.3,1.2,1.3c0.8,0,1.2-0.6,1.2-1.3
					C246.9,145.7,246.4,145.1,245.7,145.1z"/>
				<path class="st0" d="M250.8,148.5c-0.7,0-1.1-0.3-1.4-0.7l0,1.9h-0.9l0-5.3l0.9,0v0.7c0.3-0.4,0.7-0.8,1.4-0.8
					c1,0,1.9,0.8,1.9,2.1C252.7,147.7,251.8,148.5,250.8,148.5z M250.6,145.1c-0.6,0-1.2,0.5-1.2,1.3c0,0.8,0.6,1.3,1.2,1.3
					c0.6,0,1.2-0.5,1.2-1.3C251.7,145.6,251.2,145.1,250.6,145.1z"/>
				<path class="st0" d="M253.3,143.7l0-0.9h1v0.9H253.3z M253.4,148.4l0-4h0.9l0,4H253.4z"/>
				<path class="st0" d="M257.1,148.5c-1.2,0-2.1-0.9-2.1-2.1c0-1.2,0.9-2.1,2.1-2.1c0.8,0,1.2,0.3,1.6,0.7l-0.6,0.6
					c-0.3-0.3-0.6-0.5-1-0.5c-0.7,0-1.2,0.6-1.2,1.3c0,0.7,0.5,1.3,1.2,1.3c0.4,0,0.8-0.2,1-0.5l0.6,0.6
					C258.3,148.2,257.9,148.5,257.1,148.5z"/>
				<path class="st0" d="M261.7,148.4v-0.5c-0.3,0.3-0.7,0.6-1.3,0.6c-0.8,0-1.4-0.4-1.4-1.2v0c0-0.9,0.7-1.3,1.6-1.3
					c0.5,0,0.8,0.1,1.1,0.2V146c0-0.6-0.4-0.9-1-0.9c-0.5,0-0.8,0.1-1.2,0.3l-0.3-0.7c0.4-0.2,0.9-0.3,1.5-0.3
					c1.2,0,1.8,0.6,1.8,1.7l0,2.4H261.7z M261.8,146.7c-0.2-0.1-0.6-0.2-0.9-0.2c-0.6,0-0.9,0.2-0.9,0.7v0c0,0.4,0.3,0.6,0.8,0.6
					c0.6,0,1.1-0.3,1.1-0.9V146.7z"/>
				<path class="st0" d="M263.5,148.4l0-5.6h0.9l0,5.6H263.5z"/>
				<path class="st0" d="M272.6,148.4l-1,0l-0.5-1.3h-2.5l-0.6,1.3h-1l2.4-5.4h0.9L272.6,148.4z M269.8,144.1l-0.9,2.1h1.8
					L269.8,144.1z"/>
				<path class="st0" d="M274.7,149.6c-0.7,0-1.3-0.2-1.8-0.5l0.3-0.7c0.4,0.3,0.9,0.4,1.4,0.4c0.8,0,1.3-0.4,1.3-1.2v-0.3
					c-0.3,0.4-0.8,0.7-1.4,0.7c-1,0-1.8-0.7-1.8-1.9c0-1.2,0.9-1.9,1.8-1.9c0.7,0,1.1,0.3,1.4,0.7v-0.6h0.9l0,3.2
					C276.9,149,276.1,149.6,274.7,149.6z M274.8,145c-0.6,0-1.1,0.4-1.1,1.1c0,0.7,0.5,1.1,1.1,1.1c0.6,0,1.2-0.5,1.2-1.1
					C276,145.5,275.4,145,274.8,145z"/>
				<path class="st0" d="M278.6,148.4h-0.9l0-4h0.9v0.9c0.3-0.6,0.7-1,1.4-1l0,1H280c-0.8,0-1.4,0.5-1.4,1.6V148.4z"/>
				<path class="st0" d="M280.6,143.7l0-0.9l1,0l0,0.9H280.6z M280.6,148.4l0-4h0.9l0,4H280.6z"/>
				<path class="st0" d="M284.3,148.5c-1.2,0-2.1-0.9-2.1-2.1c0-1.2,0.9-2.1,2.1-2.1c0.8,0,1.2,0.3,1.6,0.7l-0.6,0.6
					c-0.3-0.3-0.6-0.5-1-0.5c-0.7,0-1.2,0.6-1.2,1.3c0,0.7,0.5,1.3,1.2,1.3c0.4,0,0.8-0.2,1-0.5l0.6,0.6
					C285.6,148.2,285.1,148.5,284.3,148.5z"/>
				<path class="st0" d="M289.2,144.3h0.9l0,4h-0.9v-0.6c-0.3,0.4-0.6,0.7-1.3,0.7c-0.9,0-1.4-0.6-1.4-1.6v-2.6h0.9l0,2.3
					c0,0.6,0.3,1,0.9,1c0.5,0,0.9-0.4,0.9-1L289.2,144.3z"/>
				<path class="st0" d="M291,148.4l0-5.6h0.9l0,5.6L291,148.4z"/>
				<path class="st0" d="M294,147.1c0,0.4,0.2,0.5,0.5,0.5c0.2,0,0.4,0,0.6-0.1v0.8c-0.2,0.1-0.5,0.2-0.8,0.2
					c-0.7,0-1.2-0.3-1.2-1.2l0-2.1l-0.5,0v-0.8h0.5l0-1.1h0.9l0,1.1h1.1v0.8H294L294,147.1z"/>
				<path class="st0" d="M298.4,144.3h0.9l0,4h-0.9l0-0.6c-0.3,0.4-0.6,0.7-1.3,0.7c-0.9,0-1.4-0.6-1.4-1.6v-2.6h0.9v2.3
					c0,0.6,0.3,1,0.9,1c0.5,0,0.9-0.4,0.9-1V144.3z"/>
				<path class="st0" d="M301.1,148.4h-0.9l0-4l0.9,0v0.9c0.3-0.6,0.7-1,1.4-1l0,1h-0.1c-0.8,0-1.4,0.5-1.4,1.6L301.1,148.4z"/>
				<path class="st0" d="M304.7,147.7c0.5,0,0.8-0.2,1.1-0.5l0.5,0.5c-0.4,0.5-0.9,0.8-1.7,0.8c-1.2,0-2.1-0.8-2.1-2.1
					c0-1.2,0.8-2.1,2-2.1c1.3,0,1.9,1,1.9,2.2c0,0.1,0,0.2,0,0.3l-3,0C303.7,147.3,304.1,147.7,304.7,147.7z M305.6,146.1
					c-0.1-0.6-0.4-1.1-1-1.1c-0.6,0-1,0.4-1,1.1H305.6z"/>
			</g>
			<g>
				<path class="st0" d="M151.5,156l0.3-0.2c0.5,0.6,1,0.9,1.9,0.9c0.9,0,1.5-0.5,1.5-1.2c0-0.5-0.3-0.7-1.2-1.1
					c-1.1-0.4-1.5-0.8-1.5-1.4c0-0.8,0.8-1.5,1.9-1.5c0.8,0,1.5,0.3,1.9,0.8l-0.3,0.2c-0.4-0.5-0.9-0.7-1.6-0.7
					c-0.9,0-1.5,0.5-1.5,1.1c0,0.5,0.4,0.8,1.3,1.1c1,0.4,1.4,0.7,1.4,1.4c0,0.9-0.8,1.6-2,1.6C152.6,157,151.9,156.6,151.5,156z"/>
				<path class="st0" d="M157.8,153l0.4,0l-1,3.9h-0.4L157.8,153z M158.1,151.5h0.5l-0.1,0.5H158L158.1,151.5z"/>
				<path class="st0" d="M159.9,153h0.4l-0.2,0.7c0.4-0.5,0.8-0.8,1.5-0.8c0.8,0,1.3,0.5,1.3,1.2c0,0.2,0,0.4-0.1,0.5l-0.6,2.2h-0.4
					l0.6-2.2c0-0.1,0.1-0.3,0.1-0.5c0-0.6-0.4-0.9-1-0.9c-0.7,0-1.4,0.6-1.6,1.5l-0.6,2.2h-0.4L159.9,153z"/>
				<path class="st0" d="M164,155.3c0-1.3,1.1-2.4,2.3-2.4c0.8,0,1.3,0.5,1.5,0.9l-0.3,0.2c-0.2-0.4-0.6-0.8-1.2-0.8
					c-1,0-1.9,1-1.9,2c0,0.9,0.6,1.4,1.3,1.4c0.5,0,0.9-0.2,1.3-0.6l0.3,0.2c-0.4,0.4-0.9,0.7-1.5,0.7
					C164.9,157,164,156.4,164,155.3z"/>
				<path class="st0" d="M169,155.4c0,0.8,0.5,1.3,1.3,1.3c0.6,0,1-0.2,1.3-0.5l0.2,0.3c-0.4,0.3-0.8,0.6-1.6,0.6
					c-1,0-1.7-0.7-1.7-1.6c0-1.2,1-2.4,2.3-2.5c1,0,1.5,0.7,1.5,1.5c0,0.3,0,0.5-0.1,0.7l-3.2,0C169,155.2,169,155.3,169,155.4z
					 M171.9,154.8c0-0.1,0-0.2,0-0.3c0-0.6-0.3-1.2-1.1-1.2c-0.9,0-1.5,0.7-1.8,1.5H171.9z"/>
				<path class="st0" d="M177.5,152l-1.1,0.4l0-0.4l1.3-0.5h0.3l-1.4,5.4h-0.4L177.5,152z"/>
				<path class="st0" d="M178.6,156.3l0.3-0.3c0.4,0.4,0.8,0.7,1.3,0.7c0.5,0,1-0.2,1.4-0.6c0.5-0.5,0.9-1.3,0.9-2
					c-0.3,0.4-0.8,0.9-1.7,0.9c-1.1,0-1.7-0.8-1.7-1.6c0-1,0.9-1.9,2.1-1.9c0.5,0,1,0.2,1.3,0.5c0.3,0.3,0.5,0.8,0.5,1.5
					c0,1.2-0.5,2.2-1.1,2.8c-0.5,0.5-1.1,0.8-1.7,0.8C179.5,157,179,156.7,178.6,156.3z M182.5,153.1c0-0.4-0.1-0.7-0.4-0.9
					c-0.3-0.3-0.6-0.4-1-0.4c-0.9,0-1.6,0.7-1.6,1.5c0,0.6,0.4,1.2,1.3,1.2S182.5,153.9,182.5,153.1z"/>
				<path class="st0" d="M184.7,156.5c-0.3-0.3-0.5-0.8-0.5-1.5c0-1.2,0.5-2.2,1.1-2.8c0.5-0.5,1.1-0.8,1.7-0.8
					c0.7,0,1.2,0.3,1.6,0.7l-0.3,0.3c-0.3-0.4-0.7-0.6-1.3-0.6c-0.5,0-1,0.2-1.4,0.6c-0.5,0.5-0.9,1.3-0.9,2
					c0.3-0.5,0.9-0.9,1.7-0.9c1.1,0,1.7,0.7,1.7,1.6c0,1-0.9,1.9-2,1.9C185.4,157,185,156.8,184.7,156.5z M187.6,155.2
					c0-0.6-0.4-1.2-1.3-1.2c-1,0-1.6,0.7-1.6,1.4c0,0.4,0.1,0.7,0.4,0.9c0.3,0.3,0.6,0.4,1,0.4C186.9,156.7,187.6,156,187.6,155.2z"
					/>
				<path class="st0" d="M192.8,151.9l-3.1,0l0.1-0.4l3.6,0l-0.1,0.3l-3.6,5.1h-0.5L192.8,151.9z"/>
				<path class="st0" d="M195.9,156l0.5-0.4c0.5,0.5,1,0.8,1.8,0.8c0.8,0,1.4-0.4,1.4-1c0-0.4-0.3-0.7-1.1-1c-1-0.4-1.5-0.7-1.5-1.4
					c0-0.9,0.8-1.6,2-1.6c0.8,0,1.5,0.3,1.9,0.8l-0.4,0.4c-0.4-0.4-0.9-0.7-1.5-0.7c-0.8,0-1.3,0.5-1.3,0.9c0,0.4,0.3,0.7,1.2,1
					c0.9,0.4,1.4,0.7,1.4,1.4c0,0.9-0.9,1.6-2,1.6C197.1,157,196.4,156.6,195.9,156z"/>
				<path class="st0" d="M201.4,155.3c0-1.3,1.1-2.4,2.3-2.4c0.8,0,1.3,0.4,1.6,0.9l-0.5,0.3c-0.2-0.4-0.5-0.7-1.1-0.7
					c-0.9,0-1.7,0.9-1.7,1.9c0,0.8,0.6,1.2,1.2,1.2c0.5,0,0.8-0.2,1.2-0.5l0.3,0.4c-0.4,0.4-0.9,0.7-1.5,0.7
					C202.2,157,201.4,156.4,201.4,155.3z"/>
				<path class="st0" d="M206.8,153h0.6l-1.1,4h-0.6L206.8,153z M207.2,151.4h0.7l-0.2,0.7H207L207.2,151.4z"/>
				<path class="st0" d="M208.8,155.3c0,0.7,0.5,1.2,1.2,1.2c0.5,0,0.9-0.2,1.2-0.5l0.3,0.4c-0.4,0.3-0.9,0.6-1.6,0.6
					c-1,0-1.8-0.7-1.8-1.7c0-1.2,1-2.5,2.3-2.5c1,0,1.5,0.7,1.5,1.5c0,0.3-0.1,0.5-0.1,0.7l-3.1,0
					C208.8,155.2,208.8,155.2,208.8,155.3z M211.5,154.7c0-0.1,0-0.2,0-0.3c0-0.5-0.3-1-1-1c-0.8,0-1.4,0.6-1.6,1.3L211.5,154.7z"/>
				<path class="st0" d="M213.9,153h0.6l-0.2,0.6c0.4-0.4,0.8-0.7,1.4-0.7c0.8,0,1.3,0.5,1.3,1.2c0,0.2,0,0.4-0.1,0.6l-0.6,2.2
					l-0.6,0l0.6-2.2c0-0.1,0.1-0.3,0.1-0.4c0-0.5-0.3-0.8-0.9-0.8c-0.6,0-1.2,0.5-1.4,1.3l-0.6,2.2h-0.6L213.9,153z"/>
				<path class="st0" d="M218,155.3c0-1.3,1.1-2.4,2.3-2.4c0.8,0,1.3,0.4,1.6,0.9l-0.5,0.3c-0.2-0.4-0.5-0.7-1.1-0.7
					c-0.9,0-1.7,0.9-1.7,1.9c0,0.8,0.6,1.2,1.2,1.2c0.5,0,0.8-0.2,1.2-0.5l0.3,0.4c-0.4,0.4-0.9,0.7-1.5,0.7
					C218.9,157,218,156.4,218,155.3z"/>
				<path class="st0" d="M223.1,155.3c0,0.7,0.5,1.2,1.2,1.2c0.5,0,0.9-0.2,1.2-0.5l0.3,0.4c-0.4,0.3-0.9,0.6-1.6,0.6
					c-1,0-1.8-0.7-1.8-1.7c0-1.2,1-2.4,2.3-2.5c1,0,1.5,0.7,1.5,1.5c0,0.3-0.1,0.5-0.1,0.8h-3.1
					C223.1,155.2,223.1,155.2,223.1,155.3z M225.8,154.7c0-0.1,0-0.2,0-0.3c0-0.5-0.3-1-1-1c-0.8,0-1.4,0.6-1.6,1.3H225.8z"/>
				<path class="st0" d="M230.1,156.2c0-0.1,0-0.3,0.1-0.4l0.6-2.3h-0.5l0.1-0.5h0.6l0.3-1.2l0.6,0l-0.3,1.2l1.2,0l-0.1,0.5h-1.2
					l-0.6,2.3c0,0.1,0,0.2,0,0.3c0,0.3,0.2,0.4,0.5,0.4c0.2,0,0.4,0,0.6-0.1l-0.1,0.5c-0.2,0.1-0.4,0.1-0.6,0.1
					C230.5,157,230.1,156.7,230.1,156.2z"/>
				<path class="st0" d="M233.2,155.2c0-1.2,1.1-2.4,2.3-2.4c1.1,0,1.8,0.7,1.8,1.8c0,1.3-1.1,2.4-2.3,2.4
					C233.9,157,233.2,156.2,233.2,155.2z M236.7,154.7c0-0.8-0.5-1.3-1.2-1.3c-0.9,0-1.7,0.9-1.7,1.8c0,0.8,0.5,1.3,1.2,1.3
					C235.9,156.5,236.7,155.6,236.7,154.7z"/>
				<path class="st0" d="M241,155.3c0-1.3,1.1-2.4,2.3-2.4c0.8,0,1.3,0.4,1.6,0.9l-0.5,0.3c-0.2-0.4-0.5-0.7-1.1-0.7
					c-0.9,0-1.7,0.9-1.7,1.9c0,0.8,0.6,1.2,1.2,1.2c0.5,0,0.8-0.2,1.2-0.5l0.3,0.4c-0.4,0.4-0.9,0.7-1.5,0.7
					C241.8,157,241,156.4,241,155.3z"/>
				<path class="st0" d="M245.6,155.8c0-0.2,0-0.4,0.1-0.6l0.6-2.2h0.6l-0.6,2.2c0,0.1-0.1,0.3-0.1,0.4c0,0.5,0.3,0.8,0.9,0.8
					c0.6,0,1.2-0.5,1.4-1.3l0.6-2.2h0.6l-1.1,4h-0.6l0.2-0.6c-0.4,0.4-0.8,0.7-1.4,0.7C246.1,157,245.6,156.5,245.6,155.8z"/>
				<path class="st0" d="M251.8,151.3h0.6l-1.5,5.6h-0.6L251.8,151.3z"/>
				<path class="st0" d="M253,156.2c0-0.1,0-0.3,0.1-0.4l0.6-2.3h-0.5l0.1-0.5h0.6l0.3-1.2h0.6l-0.3,1.2h1.2l-0.1,0.5l-1.2,0
					l-0.6,2.3c0,0.1,0,0.2,0,0.3c0,0.3,0.2,0.4,0.5,0.4c0.2,0,0.4,0,0.6-0.1l-0.1,0.5c-0.2,0.1-0.4,0.1-0.6,0.1
					C253.4,157,253,156.7,253,156.2z"/>
				<path class="st0" d="M257.1,152.9l0.6,0l-1.1,4H256L257.1,152.9z M257.4,151.4h0.7l-0.2,0.7h-0.7L257.4,151.4z"/>
				<path class="st0" d="M258.8,152.9h0.6l0.4,3.3l2.2-3.3l0.7,0l-2.8,4h-0.5L258.8,152.9z"/>
				<path class="st0" d="M262.7,155.9c0-0.9,0.7-1.4,1.8-1.4c0.5,0,1,0.1,1.4,0.2l0-0.1c0-0.1,0.1-0.3,0.1-0.4
					c0-0.5-0.4-0.8-1.1-0.8c-0.4,0-0.8,0.1-1.1,0.2l-0.1-0.5c0.4-0.1,0.8-0.2,1.3-0.2c1,0,1.6,0.5,1.6,1.2c0,0.2,0,0.4-0.1,0.5
					l-0.6,2.2h-0.6l0.2-0.6c-0.4,0.4-0.8,0.7-1.5,0.7C263.3,157,262.7,156.6,262.7,155.9z M265.7,155.3l0.1-0.3
					c-0.3-0.1-0.8-0.2-1.3-0.2c-0.7,0-1.2,0.4-1.2,0.9c0,0.4,0.3,0.7,0.8,0.7C264.8,156.5,265.5,156,265.7,155.3z"/>
				<path class="st0" d="M267.8,156.2c0-0.1,0-0.3,0.1-0.4l0.6-2.3h-0.5l0.1-0.5l0.6,0l0.3-1.2h0.6l-0.3,1.2h1.2l-0.1,0.5l-1.2,0
					l-0.6,2.3c0,0.1,0,0.2,0,0.3c0,0.3,0.2,0.4,0.5,0.4c0.2,0,0.4,0,0.6-0.1l-0.1,0.5c-0.2,0.1-0.4,0.1-0.6,0.1
					C268.2,157,267.8,156.7,267.8,156.2z"/>
				<path class="st0" d="M271.4,155.3c0,0.7,0.5,1.2,1.2,1.2c0.5,0,0.9-0.2,1.2-0.5l0.3,0.4c-0.4,0.3-0.9,0.6-1.6,0.6
					c-1,0-1.8-0.7-1.8-1.7c0-1.2,1-2.5,2.3-2.5c1,0,1.5,0.7,1.5,1.5c0,0.3-0.1,0.5-0.1,0.8h-3.1
					C271.4,155.2,271.4,155.2,271.4,155.3z M274.1,154.7c0-0.1,0-0.2,0-0.3c0-0.5-0.3-1-1-1c-0.8,0-1.4,0.6-1.6,1.3H274.1z"/>
				<path class="st0" d="M278.2,155.2c0-1.3,1.1-2.4,2.3-2.4c0.8,0,1.3,0.4,1.6,0.9l-0.5,0.3c-0.2-0.4-0.5-0.7-1.1-0.7
					c-0.9,0-1.7,0.9-1.7,1.9c0,0.8,0.6,1.2,1.2,1.2c0.5,0,0.8-0.2,1.2-0.5l0.3,0.4c-0.4,0.4-0.9,0.7-1.5,0.7
					C279,157,278.2,156.3,278.2,155.2z"/>
				<path class="st0" d="M284.1,151.3h0.6l-0.6,2.3c0.4-0.4,0.8-0.7,1.4-0.7c0.8,0,1.3,0.5,1.3,1.2c0,0.2,0,0.4-0.1,0.6l-0.6,2.2
					h-0.6l0.6-2.2c0-0.1,0.1-0.3,0.1-0.4c0-0.5-0.3-0.8-0.9-0.8c-0.6,0-1.2,0.5-1.4,1.3l-0.6,2.2h-0.6L284.1,151.3z"/>
				<path class="st0" d="M287.6,155.9c0-0.9,0.7-1.4,1.8-1.4c0.5,0,1,0.1,1.4,0.2l0-0.1c0-0.1,0.1-0.3,0.1-0.4
					c0-0.5-0.4-0.8-1.1-0.8c-0.4,0-0.8,0.1-1.1,0.2l-0.1-0.5c0.4-0.1,0.8-0.2,1.3-0.2c1,0,1.6,0.5,1.6,1.2c0,0.2,0,0.4-0.1,0.5
					l-0.6,2.2h-0.6l0.2-0.6c-0.4,0.4-0.9,0.7-1.5,0.7C288.2,157,287.6,156.6,287.6,155.9z M290.6,155.3l0.1-0.3
					c-0.3-0.1-0.8-0.2-1.3-0.2c-0.7,0-1.2,0.4-1.2,0.9c0,0.4,0.3,0.7,0.8,0.7C289.7,156.5,290.4,156,290.6,155.3z"/>
				<path class="st0" d="M293.3,152.9h0.6l-0.2,0.6c0.4-0.4,0.8-0.7,1.4-0.7c0.8,0,1.3,0.5,1.3,1.2c0,0.2,0,0.4-0.1,0.6l-0.6,2.2
					h-0.6l0.6-2.2c0-0.1,0.1-0.3,0.1-0.4c0-0.5-0.3-0.8-0.9-0.8c-0.6,0-1.2,0.5-1.4,1.3l-0.6,2.2h-0.6L293.3,152.9z"/>
				<path class="st0" d="M297,157.4l0.4-0.4c0.4,0.4,1,0.6,1.6,0.6c0.5,0,0.9-0.2,1.1-0.4c0.2-0.2,0.4-0.5,0.5-1l0.1-0.4
					c-0.4,0.4-0.9,0.7-1.5,0.7c-0.8,0-1.6-0.5-1.6-1.5c0-1.3,1.1-2.2,2.2-2.2c0.8,0,1.2,0.5,1.5,1l0.2-0.9h0.6l-0.9,3.4
					c-0.2,0.6-0.4,1-0.6,1.2c-0.4,0.4-0.9,0.6-1.5,0.6C298.2,158.1,297.5,157.9,297,157.4z M301,154.5c0-0.6-0.5-1.1-1.2-1.1
					c-0.8,0-1.6,0.7-1.6,1.6c0,0.7,0.6,1.1,1.2,1.1C300.2,156.1,301,155.3,301,154.5z"/>
				<path class="st0" d="M303.4,155.3c0,0.7,0.5,1.2,1.2,1.2c0.5,0,0.9-0.2,1.2-0.5l0.3,0.4c-0.4,0.3-0.9,0.6-1.6,0.6
					c-1.1,0-1.8-0.7-1.8-1.7c0-1.2,1-2.5,2.3-2.5c1,0,1.5,0.7,1.5,1.5c0,0.3-0.1,0.5-0.1,0.7l-3.1,0
					C303.4,155.2,303.4,155.2,303.4,155.3z M306,154.7c0-0.1,0-0.2,0-0.3c0-0.5-0.3-1-1-1c-0.8,0-1.4,0.6-1.6,1.3H306z"/>
			</g>
		</g>
		<g>
			
				<image style="display:none;overflow:visible;opacity:0.19;" width="100" height="70" xlink:href="83C6881C.png"  transform="matrix(0.5484 0 0 0.5484 151.1919 90.1685)">
			</image>
			<g>
				<path class="st2" d="M153.7,121.7c-2.5-37.3,21.3-27.6,46.6-29.4C200.2,125.6,170.9,105.5,153.7,121.7z"/>
			</g>
			
				<image style="display:none;overflow:visible;opacity:0.19;" width="99" height="50" xlink:href="83C6881D.png"  transform="matrix(0.5484 0 0 0.5484 151.7398 112.104)">
			</image>
			<g>
				<path class="st2" d="M177,114.1c12.8,0,23.2,4.4,23.2,9.9c0,5.5-10.4,9.9-23.2,9.9c-12.8,0-23.2-4.4-23.2-9.9
					C153.8,118.6,164.2,114.1,177,114.1z"/>
			</g>
			<path class="st0" d="M201.4,124.1l0-0.7l-0.1-0.6l-0.2-0.6l-0.3-0.6l-0.3-0.6l-0.4-0.6l-0.4-0.5l-0.5-0.5l-0.5-0.5l-0.6-0.5
				l-0.6-0.5l-0.7-0.4l-0.7-0.4l-0.7-0.4l-0.8-0.4l-0.8-0.4l-0.8-0.3l-0.9-0.3l-0.9-0.3l-0.9-0.3l-1-0.3l-1-0.2l-1-0.2l-0.1,0
				l1.5-0.4l1.6-0.5l1.6-0.6l1.5-0.8l1.4-1l1.3-1.2l1.2-1.3l1-1.6l0.9-1.8l0.7-2l0.6-2.2l0.4-2.5l0.3-2.7l0.1-3l0,0v0l0-0.1l0-0.1
				l0-0.1l0-0.1l0-0.1l0-0.1l0-0.1l0-0.1l0-0.1l0,0l0,0l0,0l0,0l0,0l0,0l0,0l0,0l0,0l0,0l0,0l0,0l0,0l-0.1,0l0,0l-0.1,0l-0.1,0
				l-0.1,0l-0.1,0l-0.1,0l-0.1,0l-0.1,0h-0.1l-0.1,0l-2.3,0.1l-2.3,0.1l-2.3,0l-2.3,0l-2.3,0l-2.3,0l-2.2,0l-2.2,0l-2.1,0l-2.1,0
				l-2.1,0.1l-2,0.1l-1.9,0.2l-1.9,0.2l-1.8,0.3l-1.8,0.4l-1.7,0.5l-1.6,0.7l-1.5,0.8l-1.4,1l-1.3,1.1l-1.2,1.3l-1.1,1.5l-1,1.7
				l-0.8,1.8l-0.7,2l-0.6,2.2l-0.4,2.5l-0.3,2.7l-0.1,2.9l0,3.2l0.2,3.3v0l0,0.1v0l0,0l0,0l0,0l0.1,2.2l0,0l0,0.7l0.1,0.6l0.2,0.6
				l0.3,0.6l0.3,0.6l0.4,0.6l0.4,0.5l0.5,0.5l0.5,0.5l0.6,0.5l0.6,0.5l0.7,0.4l0.7,0.4l0.7,0.4l0.8,0.4l0.8,0.4l0.8,0.3l0.9,0.3
				l0.9,0.3l0.9,0.3l1,0.3l1,0.2l1,0.2l1.1,0.2l1.1,0.2l1.1,0.2l1.1,0.1l1.1,0.1l1.2,0.1l1.2,0.1l1.2,0l1.2,0l1.2,0l1.2,0l1.2-0.1
				l1.2-0.1l1.1-0.1l1.1-0.1l1.1-0.2l1.1-0.2l1.1-0.2l1-0.2l1-0.2l1-0.3l0.9-0.3l0.9-0.3l0.9-0.3l0.8-0.3l0.8-0.4l0.8-0.4l0.7-0.4
				l0.7-0.4l0.7-0.4l0.6-0.5l0.6-0.5l0.5-0.5l0.5-0.5l0.4-0.5l0.4-0.6l0.3-0.6l0.3-0.6l0.2-0.6l0.1-0.5l0,0l0,0l0-0.1L201.4,124.1z
				 M178.1,115.4c3.9,0.5,7,3.7,7.5,7.6h-7.5V115.4z M198,96.7l1.1-1.1l-0.2,2.3l-0.4,2.3l-0.5,2l-0.7,1.8l-0.8,1.5l-0.9,1.3l-1,1.1
				l-1.1,1l-1.2,0.8l-1.3,0.7l-1.4,0.6l-1.5,0.5l-1.6,0.4l-1.6,0.3l-1.7,0.2l-1.8,0.2l-1.8,0.2l-1.9,0.1l-1.8,0.1h0v0l-0.1,0l-0.1,0
				l-1.1,0l-1.2,0.1l-1.2,0.1l-1.1,0.1l-1.1,0.1l-1.1,0.2l-1.1,0.2l-1.1,0.2l-1,0.2l-1,0.2l-1,0.3l-0.9,0.3l-0.9,0.3l-0.9,0.3
				l-0.8,0.3l-0.8,0.4l-0.8,0.4l-0.7,0.4l-0.7,0.4l-0.7,0.4l-0.6,0.5l-0.6,0.5l-0.1,0.1l0-0.3l0.4-1.8l0.6-1.6l0.7-1.4l0.8-1.2
				l0.9-1.1l1.1-0.9l1.2-0.8l1.3-0.7l1.4-0.6l1.5-0.6l1.6-0.5l1.7-0.4l1.7-0.4l1.8-0.3l1.8-0.3l1.9-0.3l1.9-0.3l1.9-0.4l2-0.4
				l1.9-0.5l1.9-0.5l1.9-0.6l1.9-0.7l1.9-0.8l1.8-0.9l1.8-1.1l1.7-1.2L198,96.7z M154.8,112.5l0.3-2.5l0.4-2.3l0.5-2.1l0.6-1.8
				l0.7-1.6l0.8-1.4l1-1.3l1-1.1l1.1-1l1.2-0.8l1.3-0.7l1.4-0.6l1.5-0.5l1.6-0.4l1.7-0.3l1.8-0.2l1.9-0.2l1.9-0.1l2,0l2.1,0l2.1,0
				l2.2,0l2.2,0l2.3,0l2.3,0l2.3,0l2.4,0l2.2-0.1l0,0l-1.4,1.5l-1.5,1.3l-1.5,1.1l-1.6,1l-1.7,0.9l-1.7,0.8l-1.8,0.7l-1.8,0.6
				l-1.9,0.5l-1.9,0.4l-1.9,0.4l-1.9,0.4l-1.9,0.3l-1.9,0.3l-1.9,0.3l-1.8,0.4l-1.8,0.4l-1.8,0.4l-1.7,0.5l-1.6,0.6l-1.6,0.7
				l-1.5,0.8l-1.4,1l-1.3,1.1l-1.1,1.3l-1,1.5l-0.3,0.7L154.8,112.5z M155.1,123l0.2-0.4l0.2-0.4l0.3-0.4l0.3-0.4l0.4-0.4l0.4-0.4
				l0.2-0.2l0.6-0.4l1.7-1l1.7-0.8l1.8-0.7l1.8-0.6l1.9-0.5l1.9-0.4l1.1-0.2c-0.1,0.1-0.2,0.2-0.3,0.3c-1.9,1.9-3,4.3-3.2,6.9
				L155.1,123L155.1,123z M169.2,132.2l-1-0.2l-1-0.2l-1-0.2l-0.9-0.2l-0.9-0.3l-0.9-0.3l-0.8-0.3l-0.8-0.3l-0.8-0.3l-0.7-0.3
				l-0.7-0.3l-0.7-0.4l-0.6-0.4l-0.6-0.4l-0.5-0.4l-0.5-0.4l-0.4-0.4l-0.4-0.4l-0.3-0.4l-0.3-0.4l-0.2-0.4l0-0.1h10.8
				c0.3,2.4,1.4,4.6,3.1,6.4c0.2,0.2,0.3,0.3,0.5,0.4L169.2,132.2z M175.9,132.6c-3.8-0.5-6.8-3.4-7.5-7.1h7.5V132.6z M175.9,123
				h-7.5c0.4-4,3.6-7.1,7.5-7.6V123z M178.1,132.6v-7.1h7.4C184.9,129.1,181.9,132.1,178.1,132.6z M198.8,125.5l-0.2,0.4l-0.3,0.4
				l-0.3,0.4l-0.4,0.4l-0.4,0.4l-0.5,0.4l-0.5,0.4l-0.6,0.4l-0.6,0.4l-0.7,0.4l-0.7,0.3l-0.7,0.3l-0.8,0.3l-0.8,0.3l-0.8,0.3
				l-0.9,0.3l-0.9,0.3l-0.9,0.2l-1,0.2l-1,0.2l-1,0.2l-0.6,0.1c0.2-0.2,0.3-0.3,0.5-0.5c1.7-1.7,2.8-4,3.1-6.4L198.8,125.5
				L198.8,125.5z M188,123c-0.2-2.6-1.3-5-3.2-6.9c-0.1-0.1-0.2-0.2-0.3-0.3l0.4,0.1l1,0.2l1,0.2l1,0.2l0.9,0.2l0.9,0.3l0.9,0.3
				l0.8,0.3l0.8,0.3l0.8,0.3l0.7,0.3l0.7,0.3l0.7,0.4l0.6,0.4l0.6,0.4l0.5,0.4l0.5,0.4l0.4,0.4l0.4,0.4l0.3,0.4l0.3,0.4l0.2,0.4
				l0.2,0.4l0,0.1H188z"/>
		</g>
	</g>
	<g>
		<path class="st0" d="M28.8,148.9h1.4v8.3h-1.4V148.9z"/>
		<path class="st0" d="M34.2,151.1h1.2v0.9l0,0c0.4-0.7,1.1-1.1,1.9-1.1c1.3,0,2.1,0.7,2.1,2v4.1h-1.3v-3.8c0-0.9-0.4-1.3-1.2-1.3
			c-0.9,0-1.4,0.7-1.4,1.6v3.5h-1.3V151.1z"/>
		<path class="st0" d="M42.7,151.1h1v-1.8H45v1.8h1.2v1H45v3.2c0,0.5,0,0.8,0.6,0.8c0.2,0,0.4,0,0.6,0v1c-0.3,0-0.6,0.1-0.9,0.1
			c-1.4,0-1.6-0.5-1.7-1.5v-3.5h-1V151.1z"/>
		<path class="st0" d="M50.6,154.5c0,0.9,0.5,1.8,1.6,1.8c0.8,0,1.2-0.3,1.5-1h1.2c-0.3,1.3-1.4,2-2.7,2c-1.9,0-2.9-1.3-2.9-3.1
			c0-1.7,1.1-3.2,2.9-3.2c1.9,0,3,1.7,2.8,3.5H50.6z M53.6,153.6c0-0.8-0.6-1.6-1.5-1.6c-0.9,0-1.5,0.7-1.6,1.6H53.6z"/>
		<path class="st0" d="M58.4,151.1h1.2v1.2h0c0.1-0.6,0.9-1.3,1.7-1.3c0.3,0,0.4,0,0.5,0v1.3c-0.2,0-0.4-0.1-0.6-0.1
			c-0.9,0-1.6,0.7-1.6,2v2.8h-1.3V151.1z"/>
		<path class="st0" d="M65,151.1h1.2v0.9l0,0c0.4-0.7,1.1-1.1,1.9-1.1c1.3,0,2.1,0.7,2.1,2v4.1H69v-3.8c0-0.9-0.4-1.3-1.2-1.3
			c-0.9,0-1.4,0.7-1.4,1.6v3.5H65V151.1z"/>
		<path class="st0" d="M79.1,155.8c0,0.3,0.1,0.5,0.3,0.5c0.1,0,0.2,0,0.3,0v0.9c-0.2,0.1-0.6,0.2-0.8,0.2c-0.5,0-0.9-0.2-1-0.7
			c-0.5,0.5-1.4,0.7-2.1,0.7c-1.1,0-2-0.6-2-1.7c0-1.5,1.2-1.7,2.3-1.9c0.9-0.2,1.8-0.1,1.8-0.8c0-0.7-0.7-0.8-1.2-0.8
			c-0.7,0-1.3,0.3-1.3,0.9H74c0.1-1.5,1.4-2,2.7-2c1.2,0,2.4,0.5,2.4,1.7V155.8z M77.8,154.1c-0.4,0.3-1,0.3-1.6,0.4
			c-0.6,0.1-1.1,0.3-1.1,1c0,0.6,0.8,0.8,1.2,0.8c0.6,0,1.5-0.3,1.5-1.1V154.1z"/>
		<path class="st0" d="M82.3,151.1h1v-1.8h1.3v1.8h1.2v1h-1.2v3.2c0,0.5,0,0.8,0.6,0.8c0.2,0,0.4,0,0.6,0v1c-0.3,0-0.6,0.1-0.9,0.1
			c-1.4,0-1.6-0.5-1.7-1.5v-3.5h-1V151.1z"/>
		<path class="st0" d="M89.2,148.9h1.3v1.2h-1.3V148.9z M89.2,151.1h1.3v6h-1.3V151.1z"/>
		<path class="st0" d="M94.1,154.1c0-1.8,1.1-3.1,3-3.1c1.9,0,3,1.3,3,3.1c0,1.8-1.1,3.2-3,3.2C95.2,157.3,94.1,156,94.1,154.1z
			 M98.8,154.1c0-1-0.5-2.1-1.7-2.1c-1.2,0-1.7,1.1-1.7,2.1c0,1,0.5,2.1,1.7,2.1C98.3,156.2,98.8,155.2,98.8,154.1z"/>
		<path class="st0" d="M103.6,151.1h1.2v0.9l0,0c0.4-0.7,1.1-1.1,1.9-1.1c1.3,0,2.1,0.7,2.1,2v4.1h-1.3v-3.8c0-0.9-0.4-1.3-1.2-1.3
			c-0.9,0-1.4,0.7-1.4,1.6v3.5h-1.3V151.1z"/>
		<path class="st0" d="M117.6,155.8c0,0.3,0.1,0.5,0.3,0.5c0.1,0,0.2,0,0.3,0v0.9c-0.2,0.1-0.6,0.2-0.8,0.2c-0.5,0-0.9-0.2-1-0.7
			c-0.5,0.5-1.4,0.7-2.1,0.7c-1.1,0-2-0.6-2-1.7c0-1.5,1.2-1.7,2.3-1.9c0.9-0.2,1.8-0.1,1.8-0.8c0-0.7-0.7-0.8-1.2-0.8
			c-0.7,0-1.3,0.3-1.3,0.9h-1.3c0.1-1.5,1.4-2,2.7-2c1.2,0,2.4,0.5,2.4,1.7V155.8z M116.3,154.1c-0.4,0.3-1,0.3-1.6,0.4
			c-0.6,0.1-1.1,0.3-1.1,1c0,0.6,0.8,0.8,1.2,0.8c0.6,0,1.5-0.3,1.5-1.1V154.1z"/>
		<path class="st0" d="M121.5,148.9h1.3v8.3h-1.3V148.9z"/>
		<path class="st0" d="M28.4,132.5H36c3.7,0,4.4,2.1,4.4,3.5c0,1.4-0.7,2.2-1.7,2.7c1.2,0.4,2.4,1.4,2.4,3.5c0,2.8-2.4,4.2-4.9,4.2
			h-7.9V132.5z M32.6,137.9h2.3c0.9,0,1.5-0.3,1.5-1.1c0-0.7-0.6-1-1.5-1h-2.3V137.9z M32.6,143.1h2.5c0.9,0,1.7-0.3,1.7-1.3
			c0-0.8-0.5-1.3-1.5-1.3h-2.7V143.1z"/>
		<path class="st0" d="M46.3,135.2h-3.9v-2.7h3.9V135.2z M42.4,136.3h3.9v10.1h-3.9V136.3z"/>
		<path class="st0" d="M53,146.7c-3.8,0-5.5-2.5-5.5-5.3c0-2.8,1.7-5.3,5.5-5.3c3.8,0,5.5,2.5,5.5,5.3
			C58.5,144.2,56.8,146.7,53,146.7z M53,138.9c-1.5,0-1.7,1.4-1.7,2.5c0,1.1,0.2,2.5,1.7,2.5c1.5,0,1.7-1.4,1.7-2.5
			C54.6,140.3,54.4,138.9,53,138.9z"/>
		<path class="st0" d="M66.2,146.4h-4.6l-3.3-10.1h4.1l1.6,6.2h0l1.6-6.2h3.9L66.2,146.4z"/>
		<path class="st0" d="M73,142.2c0.1,1.1,0.8,2,2,2c0.6,0,1.3-0.2,1.6-0.7h3.6c-0.8,2.2-2.9,3.2-5.2,3.2c-3.2,0-5.7-1.9-5.7-5.3
			c0-2.9,2.1-5.3,5.3-5.3c4,0,5.7,2.2,5.7,6.2H73z M76.7,140.2c0-0.9-0.7-1.7-1.7-1.7c-1.1,0-1.8,0.6-2,1.7H76.7z"/>
		<path class="st0" d="M81.5,136.3h3.7v1.6h0c0.6-1.2,1.4-1.9,2.8-1.9c0.4,0,0.8,0.1,1.1,0.2v3.4c-0.4-0.1-0.7-0.3-1.5-0.3
			c-1.5,0-2.3,0.9-2.3,3.1v4h-3.9V136.3z"/>
		<path class="st0" d="M95.8,139.3c0-0.3-0.2-0.6-0.4-0.8c-0.2-0.2-0.5-0.3-0.9-0.3c-0.5,0-1.2,0.1-1.2,0.8c0,0.3,0.2,0.4,0.4,0.5
			c0.6,0.3,2.1,0.3,3.4,0.8c1.3,0.4,2.4,1.2,2.4,2.8c0,2.8-2.7,3.6-5.1,3.6c-2.4,0-5-1-5-3.6H93c0,0.4,0.2,0.6,0.5,0.9
			c0.2,0.2,0.6,0.3,1,0.3c0.5,0,1.3-0.2,1.3-0.8c0-0.6-0.3-0.8-2.1-1.1c-2.9-0.5-4.1-1.4-4.1-3.2c0-2.5,2.7-3.2,4.8-3.2
			c2.2,0,4.8,0.6,4.9,3.2H95.8z"/>
		<path class="st0" d="M104.4,135.2h-3.9v-2.7h3.9V135.2z M100.6,136.3h3.9v10.1h-3.9V136.3z"/>
		<path class="st0" d="M110.7,136.3h2.1v2.4h-2.1v3.5c0,0.9,0.2,1.3,1.2,1.3c0.3,0,0.6,0,0.9-0.1v2.9c-0.8,0-1.7,0.1-2.5,0.1
			c-1.6,0-3.4-0.3-3.4-3v-4.8h-1.7v-2.4h1.7v-3.1h3.9V136.3z"/>
		<path class="st0" d="M121.2,145.6c-0.3,0.9-0.7,2-1.3,2.8c-1,1.3-2.6,1.2-4.1,1.2h-1.8v-3.1h0.9c0.4,0,0.9,0,1.2-0.1
			c0.2-0.1,0.4-0.3,0.4-0.8c0-0.5-1.5-4.2-1.7-4.8l-1.7-4.7h4.1l1.6,5.8h0l1.6-5.8h4L121.2,145.6z"/>
		<path class="st0" d="M98.1,101.7c0,0.2-0.1,0.4-0.1,0.6c-0.4,1.4-1.4,2.5-2.6,3.5c7.1,5.5,11.6,14,11.6,23.6h4.9
			C111.8,118.2,106.4,108.1,98.1,101.7z"/>
		<path class="st0" d="M41.3,129.4h4.9c0-8.5,3.6-16.1,9.3-21.6c-2-0.1-4.1-0.3-6-0.9C44.4,113.1,41.3,120.9,41.3,129.4z"/>
		<path class="st0" d="M84,86c0,4-3.2,7.2-7.2,7.2c-4,0-7.2-3.2-7.2-7.2c0-4,3.2-7.2,7.2-7.2C80.8,78.9,84,82.1,84,86z"/>
		<path class="st0" d="M65.9,101.6c0,0-1.9-5.6-0.8-8c4.3-10.2-8.5-20.2-8.5-20.2s-1.5,4.5-1.5,9.4c0,4.8,1.6,9.7,5.5,12.1
			c3.3,2,3.9,7.3,3.9,7.3s-2.1-0.9-3.1-2.9c-1-1.9-4.2-7.7-17.5-6.6c-1.1,0.1-2.2,0.4-3.5,0.5c0,0,1,7.3,9.5,8.9
			c8.6,1.6,10.9-0.6,12.6,0.3c1,0.6,1.6,1.3,1.6,1.3L65.9,101.6z"/>
		<path class="st0" d="M63.8,114.4c0,0-6.7-10,4.8-14.6c9-3.8,19.2-4,22.8-9.9c0,0,5.1,8-1.2,12.5C84,106.9,67.3,107.9,63.8,114.4z"
			/>
		<path class="st0" d="M58.1,133.7c0,0-2.2-3-2.1-6.8c0.1-3.8,1.6-5.6,5.8-7.8c4.1-2.1,12.6-4.6,15.7-5.8c2.5-1,5.5-2.3,5.5-2.3
			s3.5,7.4-2.5,11c-6,3.5-7.4,3.2-13.5,5.5C58.8,130.6,58.1,133.7,58.1,133.7z"/>
	</g>
	<g>
		<path class="st0" d="M134.1,30.9h2.3l6.1,16h-2.3l-1.7-4.8h-6.6l-1.7,4.8h-2.1L134.1,30.9z M132.6,40.3h5.2l-2.6-7.5h-0.1
			L132.6,40.3z"/>
		<path class="st0" d="M144.3,30.9h1.8v16h-1.8V30.9z"/>
		<path class="st0" d="M149.2,30.9h1.8v16h-1.8V30.9z"/>
		<path class="st0" d="M156.1,33.3h-1.8v-2.3h1.8V33.3z M154.2,35.4h1.8V47h-1.8V35.4z"/>
		<path class="st0" d="M169,46.9c-0.3,0.2-0.7,0.3-1.3,0.3c-1,0-1.5-0.6-1.6-1.8c-1,1.2-2.4,1.8-4,1.8c-1,0-1.9-0.3-2.6-0.8
			c-0.7-0.5-1.1-1.3-1.1-2.5c0-0.7,0.1-1.2,0.3-1.6c0.2-0.4,0.5-0.8,0.9-1c0.4-0.3,0.8-0.5,1.2-0.6c0.4-0.1,0.9-0.2,1.4-0.3
			c0.5-0.1,1-0.2,1.5-0.2c0.5-0.1,0.9-0.1,1.2-0.2c0.7-0.1,1.1-0.6,1.1-1.2c0-0.4-0.1-0.8-0.2-1c-0.2-0.2-0.4-0.4-0.6-0.6
			c-0.5-0.2-1.1-0.4-1.7-0.3c-0.8,0-1.4,0.1-1.9,0.4c-0.5,0.3-0.8,0.9-0.9,1.8h-1.8c0.1-1.4,0.6-2.4,1.5-3c0.9-0.6,2-0.9,3.3-0.9
			c0.5,0,1,0,1.5,0.1c0.5,0.1,1,0.2,1.3,0.5c0.4,0.2,0.7,0.5,1,1c0.2,0.4,0.3,1,0.3,1.7v6c0,0.5,0,0.8,0.1,1
			c0.1,0.2,0.2,0.3,0.5,0.3c0.1,0,0.3,0,0.6-0.1V46.9z M166.1,41c-0.4,0.3-0.8,0.4-1.5,0.5c-0.6,0.1-1.3,0.2-1.9,0.3
			c-0.6,0.1-1.2,0.3-1.6,0.6c-0.5,0.3-0.7,0.8-0.7,1.5c0,0.6,0.2,1.1,0.7,1.3c0.4,0.3,0.9,0.4,1.5,0.4c0.6,0,1.1-0.1,1.6-0.3
			c0.4-0.2,0.8-0.4,1.1-0.6c0.5-0.6,0.8-1.1,0.8-1.7V41z"/>
		<path class="st0" d="M171.1,35.4h1.7v1.8h0c0.8-1.4,2-2.1,3.6-2.1c1.5,0,2.5,0.4,3.1,1.2c0.6,0.8,0.8,1.8,0.8,3.1V47h-1.8v-7.8
			c0-1.5-0.8-2.3-2.3-2.3c-1.1,0-1.9,0.4-2.5,1c-0.6,0.7-0.9,1.6-0.9,2.6V47h-1.8V35.4z"/>
		<path class="st0" d="M191.2,39.1c-0.3-1.5-1.2-2.3-2.8-2.3c-1.3,0-2.2,0.5-2.7,1.4c-0.5,0.9-0.8,1.9-0.8,3.2c0,1.1,0.2,2,0.8,2.9
			c0.5,0.9,1.3,1.3,2.5,1.3c1.8,0,2.8-1,3.1-2.8h1.9c-0.4,3-2.1,4.5-5,4.5c-1.7,0-3-0.6-3.9-1.7c-0.9-1.1-1.3-2.5-1.3-4.2
			c0-1.8,0.4-3.3,1.3-4.4c0.9-1.2,2.2-1.8,4-1.8c1.3,0,2.4,0.3,3.3,0.9c0.9,0.6,1.4,1.7,1.5,3.1H191.2z"/>
		<path class="st0" d="M205.2,43.3c-0.6,2.6-2.2,3.9-4.8,4c-1.8,0-3.1-0.6-4-1.7c-0.9-1.1-1.4-2.6-1.4-4.4c0-1.8,0.5-3.2,1.5-4.3
			c1-1.1,2.2-1.7,3.8-1.7c2,0,3.3,0.8,4.1,2.2c0.8,1.4,1.1,2.9,1,4.4H197c0,1,0.2,1.9,0.8,2.6c0.6,0.8,1.5,1.2,2.7,1.2
			c1.6,0,2.5-0.8,2.9-2.3H205.2z M203.5,40.1c-0.1-0.9-0.4-1.7-1-2.3s-1.3-0.9-2.3-0.9c-1,0-1.7,0.3-2.3,0.9c-0.6,0.6-0.9,1.4-1,2.3
			H203.5z"/>
	</g>
	<rect x="28.8" y="59.4" class="st3" width="277.5" height="1"/>
</g>
</svg>
