<?xml version="1.0" encoding="utf-8"?>
<!-- Generator: Adobe Illustrator 24.2.3, SVG Export Plug-In . SVG Version: 6.00 Build 0)  -->
<svg version="1.1" id="layer" xmlns="http://www.w3.org/2000/svg" xmlns:xlink="http://www.w3.org/1999/xlink" x="0px" y="0px"
	 viewBox="0 0 652 652" style="enable-background:new 0 0 652 652;" xml:space="preserve">
<style type="text/css">
	.st0{fill:#62BB46;}
	.st1{fill:#FFFFFF;}
</style>
<rect x="42.7" y="150.8" class="st0" width="555.4" height="328.4"/>
<g>
	<rect x="250.1" y="197" class="st1" width="3.6" height="29"/>
	<polygon class="st1" points="260.7,195.6 282.4,218.3 282.4,197 286,197 286,227.1 264.3,204.3 264.3,225.9 260.7,225.9 	"/>
	<polygon class="st1" points="300.8,225.9 297.2,225.9 297.2,200.3 290.4,200.3 290.4,197 307.7,197 307.7,200.3 300.8,200.3 	"/>
	<polygon class="st1" points="312.5,197 328,197 328,200.3 316.1,200.3 316.1,208.3 327.7,208.3 327.7,211.7 316.1,211.7 
		316.1,222.6 328,222.6 328,225.9 312.5,225.9 	"/>
	<g>
		<path class="st1" d="M338,210.6h1.1c3.7,0,7.7-0.7,7.7-5.3c0-4.5-4.3-5.2-7.9-5.2h-1L338,210.6L338,210.6z M352.4,225.9H348
			l-8.5-12.2H338v12.2h-3.6V197h4.4c2.6,0,5.3,0.1,7.6,1.3c2.4,1.4,3.8,4.1,3.8,6.9c0,4.1-2.8,7.6-7,8.1L352.4,225.9z"/>
	</g>
	<polygon class="st1" points="356.8,195.6 378.6,218.3 378.6,197 382.2,197 382.2,227.1 360.4,204.3 360.4,225.9 356.8,225.9 	"/>
	<path class="st1" d="M400,203.7l-5.1,11.7h10.2L400,203.7z M393.3,218.6l-3.3,7.2h-3.9l13.8-30.2l13.8,30.2h-3.9l-3.3-7.2H393.3z"
		/>
	<polygon class="st1" points="422.8,225.9 419.2,225.9 419.2,200.3 412.4,200.3 412.4,197 429.7,197 429.7,200.3 422.8,200.3 	"/>
	<rect x="434.4" y="197" class="st1" width="3.6" height="29"/>
	<g>
		<path class="st1" d="M470,211.4c0-6.4-4.7-11.7-11.6-11.7c-6.8,0-11.6,5.3-11.6,11.7c0,6.6,5.3,11.7,11.6,11.7
			C464.7,223.1,470,218.1,470,211.4 M473.6,211.4c0,8.6-6.8,15.1-15.2,15.1c-8.3,0-15.2-6.5-15.2-15.1c0-8.3,6.9-15.1,15.2-15.1
			C466.7,196.4,473.6,203.1,473.6,211.4"/>
	</g>
	<polygon class="st1" points="478.7,195.6 500.4,218.3 500.4,197 504,197 504,227.1 482.3,204.3 482.3,225.9 478.7,225.9 	"/>
	<path class="st1" d="M521.8,203.7l-5.1,11.7H527L521.8,203.7z M515.1,218.6l-3.3,7.2H508l13.8-30.2l13.8,30.2h-3.9l-3.3-7.2H515.1z
		"/>
	<polygon class="st1" points="543.6,222.6 552.4,222.6 552.4,225.9 539.9,225.9 539.9,197 543.6,197 	"/>
	<polygon class="st1" points="253.7,249.3 253.7,257.4 263.8,257.4 263.8,260.7 253.7,260.7 253.7,274.9 250.1,274.9 250.1,246 
		264.2,246 264.2,249.3 	"/>
	<g>
		<path class="st1" d="M295,260.4c0-6.4-4.7-11.7-11.6-11.7c-6.8,0-11.6,5.3-11.6,11.7c0,6.6,5.3,11.7,11.6,11.7
			S295,267.1,295,260.4 M298.6,260.4c0,8.6-6.8,15.1-15.2,15.1c-8.4,0-15.2-6.5-15.2-15.1c0-8.3,6.9-15.1,15.2-15.1
			C291.7,245.3,298.6,252.1,298.6,260.4"/>
		<path class="st1" d="M328.7,260.4c0-6.4-4.7-11.7-11.6-11.7c-6.8,0-11.6,5.3-11.6,11.7c0,6.6,5.3,11.7,11.6,11.7
			S328.7,267.1,328.7,260.4 M332.3,260.4c0,8.6-6.8,15.1-15.2,15.1c-8.4,0-15.2-6.5-15.2-15.1c0-8.3,6.9-15.1,15.2-15.1
			C325.4,245.3,332.3,252.1,332.3,260.4"/>
		<path class="st1" d="M341,271.6h1.2c7.4,0,13.7-2.8,13.7-11.2c0-8.5-6.4-11.2-13.7-11.2H341V271.6z M337.4,246h6
			c8.9,0,16.2,4.7,16.2,14.3c0,9.9-7.2,14.6-16.4,14.6h-5.8V246z"/>
		<path class="st1" d="M381.8,259.6h1.1c3.7,0,7.7-0.7,7.7-5.3c0-4.5-4.3-5.1-7.9-5.1h-1L381.8,259.6L381.8,259.6z M381.8,274.9
			h-3.6v-29h4.1c8.9,0,11.7,3.1,11.7,8.3c0,6.1-4.7,8.5-10.1,8.5h-2.1L381.8,274.9L381.8,274.9z"/>
		<path class="st1" d="M423.7,260.4c0-6.4-4.7-11.7-11.6-11.7c-6.8,0-11.6,5.3-11.6,11.7c0,6.6,5.3,11.7,11.6,11.7
			S423.7,267.1,423.7,260.4 M427.4,260.4c0,8.6-6.8,15.1-15.2,15.1c-8.3,0-15.2-6.5-15.2-15.1c0-8.3,6.9-15.1,15.2-15.1
			C420.5,245.3,427.4,252.1,427.4,260.4"/>
	</g>
	<polygon class="st1" points="436.4,271.6 445.2,271.6 445.2,274.9 432.8,274.9 432.8,246 436.4,246 	"/>
	<rect x="449.4" y="246" class="st1" width="3.6" height="29"/>
	<g>
		<path class="st1" d="M481.4,251.5c-2.1-1.8-4.9-2.8-7.6-2.8c-6.5,0-11.4,5.4-11.4,11.8c0,6.3,4.9,11.8,11.4,11.8
			c2.8,0,5.6-1.1,7.7-3v4.3c-2.2,1.3-5.1,2-7.6,2c-8.3,0-15.1-6.6-15.1-14.9c0-8.5,6.9-15.2,15.4-15.2c2.6,0,5.1,0.6,7.3,2
			L481.4,251.5L481.4,251.5z"/>
	</g>
	<polygon class="st1" points="484.6,246 488.7,246 495.9,258.3 503,246 507.1,246 497.6,262.3 497.6,274.9 494,274.9 494,262.3 	"/>
	<g>
		<path class="st1" d="M253.8,308.6h1.2c3.7,0,7.7-0.7,7.7-5.3c0-4.5-4.3-5.2-7.9-5.2h-1V308.6z M268.2,323.9h-4.4l-8.5-12.2h-1.5
			v12.2h-3.6v-29h4.4c2.6,0,5.3,0.1,7.6,1.3c2.4,1.4,3.8,4.1,3.8,6.9c0,4.1-2.8,7.6-7,8.1L268.2,323.9z"/>
	</g>
	<polygon class="st1" points="273,295 288.5,295 288.5,298.3 276.5,298.3 276.5,306.3 288.2,306.3 288.2,309.6 276.5,309.6 
		276.5,320.6 288.5,320.6 288.5,323.9 273,323.9 	"/>
	<g>
		<path class="st1" d="M307.7,300.4c-1.1-1.8-2.4-2.7-4.7-2.7c-2.3,0-4.9,1.6-4.9,4.1c0,2.2,2.2,3.5,4,4.1l2.1,0.8
			c4.1,1.6,7.2,3.9,7.2,8.7c0,5.3-4.1,9-9.3,9c-4.7,0-8.3-3.5-8.9-8.1l3.7-0.8c-0.1,3.2,2.5,5.5,5.6,5.5c3.1,0,5.3-2.6,5.3-5.6
			c0-3.1-2.5-4.5-5-5.5l-2-0.9c-3.3-1.4-6.3-3.3-6.3-7.4c0-4.7,4.1-7.5,8.5-7.5c3.2,0,5.8,1.6,7.4,4.4L307.7,300.4z"/>
	</g>
	<polygon class="st1" points="317.4,295 333,295 333,298.3 321,298.3 321,306.3 332.6,306.3 332.6,309.6 321,309.6 321,320.6 
		333,320.6 333,323.9 317.4,323.9 	"/>
	<path class="st1" d="M350,301.6l-5.1,11.7h10.3L350,301.6z M343.4,316.7l-3.3,7.2h-3.9l13.8-30.2l13.8,30.2H360l-3.3-7.2H343.4z"/>
	<g>
		<path class="st1" d="M371.9,308.6h1.2c3.7,0,7.7-0.7,7.7-5.3c0-4.5-4.3-5.2-7.9-5.2h-1V308.6z M386.2,323.9h-4.4l-8.5-12.2h-1.5
			v12.2h-3.6v-29h4.4c2.6,0,5.3,0.1,7.6,1.3c2.4,1.4,3.8,4.1,3.8,6.9c0,4.1-2.8,7.6-7,8.1L386.2,323.9z"/>
		<path class="st1" d="M412.1,300.5c-2.1-1.8-4.9-2.8-7.6-2.8c-6.5,0-11.4,5.4-11.4,11.8c0,6.3,4.9,11.8,11.4,11.8
			c2.8,0,5.6-1.1,7.7-3v4.3c-2.2,1.3-5.1,2-7.6,2c-8.3,0-15.1-6.6-15.1-14.9c0-8.5,6.9-15.2,15.4-15.2c2.6,0,5.1,0.6,7.3,2
			L412.1,300.5L412.1,300.5z"/>
	</g>
	<polygon class="st1" points="435.4,306.6 435.4,295 439,295 439,323.9 435.4,323.9 435.4,310 421.6,310 421.6,323.9 418,323.9 
		418,295 421.6,295 421.6,306.6 	"/>
	<rect x="250.1" y="344" class="st1" width="3.6" height="29"/>
	<polygon class="st1" points="260.7,342.6 282.4,365.3 282.4,344 286,344 286,374.1 264.3,351.3 264.3,372.9 260.7,372.9 	"/>
	<g>
		<path class="st1" d="M305.9,349.4c-1.1-1.8-2.4-2.7-4.7-2.7c-2.3,0-4.9,1.6-4.9,4.1c0,2.2,2.2,3.5,4,4.1l2.1,0.8
			c4.1,1.6,7.2,3.9,7.2,8.7c0,5.3-4.1,9-9.3,9c-4.7,0-8.3-3.5-8.9-8.1l3.6-0.8c-0.1,3.2,2.5,5.5,5.6,5.5s5.3-2.6,5.3-5.6
			c0-3.1-2.5-4.5-5-5.5l-2-0.9c-3.3-1.4-6.3-3.3-6.3-7.4c0-4.7,4.1-7.5,8.5-7.5c3.2,0,5.8,1.6,7.4,4.4L305.9,349.4z"/>
	</g>
	<polygon class="st1" points="323.4,372.9 319.8,372.9 319.8,347.3 312.9,347.3 312.9,344 330.3,344 330.3,347.3 323.4,347.3 	"/>
	<rect x="334.9" y="344" class="st1" width="3.6" height="29"/>
	<polygon class="st1" points="353.7,372.9 350,372.9 350,347.3 343.1,347.3 343.1,344 360.5,344 360.5,347.3 353.7,347.3 	"/>
	<g>
		<path class="st1" d="M368.4,344v17.1c0,4.7,1.4,9.1,7,9.1c5.6,0,7-4.4,7-9.1V344h3.6v18.3c0,6.4-3.9,11.2-10.6,11.2
			c-6.6,0-10.6-4.9-10.6-11.2V344H368.4z"/>
	</g>
	<polygon class="st1" points="400.6,372.9 397.1,372.9 397.1,347.3 390.2,347.3 390.2,344 407.5,344 407.5,347.3 400.6,347.3 	"/>
	<polygon class="st1" points="412.3,344 427.8,344 427.8,347.3 415.9,347.3 415.9,355.3 427.5,355.3 427.5,358.6 415.9,358.6 
		415.9,369.6 427.8,369.6 427.8,372.9 412.3,372.9 	"/>
	<g>
		<path class="st1" d="M87.5,434.1c1.1-0.6,1.6-1.4,1.6-2.9v-37.8c0-1.4-0.7-2.4-1.6-2.9H99c-1.1,0.5-1.6,1.4-1.6,2.9v37.8
			c0,1.4,0.6,2.3,1.6,2.9H87.5z"/>
		<path class="st1" d="M126.8,394c-2,0-12.3-0.3-12.3-0.3v14.7h10c1.1,0,2-1.1,2.4-1.8v6.8c-0.3-0.9-1.3-1.8-2.4-1.8h-10v19.6
			c0,1.5,0.7,2.2,1.8,2.9h-11.9c1.2-0.7,1.9-1.3,1.9-2.9v-37.8c0-1.4-0.8-2.4-1.9-2.9h27.2l0.3,6.2
			C131.2,395.2,129.8,394.1,126.8,394"/>
		<path class="st1" d="M146.8,393.6c-1.9,0-3.3,0.1-3.3,0.1v18c0.3,0.2,1.6,0.3,2.5,0.3c3.4,0,9.9-1.2,9.9-9.5
			C155.9,397.6,153.2,393.6,146.8,393.6 M156.3,413.8c-2.1,1-7.8,2.2-12.7,0.5v16.9c0,1.4,0.7,2.3,1.6,2.9h-11.6
			c1.1-0.6,1.8-1.4,1.8-2.9v-37.8c0-1.4-0.8-2.4-1.8-2.9h14.5c12.9,0,16,6.6,16,11.9C164.1,409.5,158.2,413,156.3,413.8"/>
		<path class="st1" d="M180.8,393.6c-1.9,0-3.7,0.1-3.7,0.1v16.7c0,0,1.8,0.1,2.9,0.1c4.3,0,8.9-2.4,8.9-8.9
			C189,398.8,187.2,393.6,180.8,393.6 M199.5,434.2c-2.4,0.1-4.5-1.4-5.7-3c-2.9-4-5.7-8.7-8-12.3c-1.6-2.6-3.2-5.3-5.9-5.3
			c-0.8,0-2.8,0.1-2.8,0.1v17.5c0,1.4,0.7,2.3,1.8,2.9h-11.6c1.1-0.6,1.6-1.4,1.6-2.9v-37.8c0-1.4-0.7-2.4-1.6-2.9h13.8
			c13.3,0,16.2,6.4,16.2,10.8c0,6.9-6.2,10.4-10.8,10.7c4.3,0.5,6.2,3.4,7.2,4.8c0,0,7.8,12.1,9.9,14.7c1.3,1.4,4.1,2.6,4.1,2.6
			L199.5,434.2z"/>
		<path class="st1" d="M205.1,434.1c1.1-0.6,1.6-1.4,1.6-2.9v-37.8c0-1.4-0.7-2.4-1.6-2.9h11.6c-1.1,0.5-1.6,1.4-1.6,2.9v37.8
			c0,1.4,0.6,2.3,1.6,2.9H205.1z"/>
		<path class="st1" d="M175,340.4c-6.6,0-12-5.5-12-12.3s5.4-12.3,12-12.3s12,5.5,12,12.3S181.7,340.4,175,340.4 M134.3,267.6
			c0-5.6,4.5-10.2,10-10.2c5.5,0,10,4.6,10,10.2s-4.5,10.2-10,10.2C138.7,277.8,134.3,273.2,134.3,267.6 M109.7,215.1
			c0-4.5,3.6-8.1,8.1-8.1s8.1,3.7,8.1,8.1c0,4.5-3.6,8.1-8.1,8.1C113.4,223.2,109.7,219.6,109.7,215.1 M215.3,312.6v-74.1
			c-32.1,15.1-53.3,46.5-60.4,86.6c-5-5.5-10.8-10.9-16.8-15.6c14.5-38.1,40.3-63.5,77.2-73.3v-39.2H166
			c-21.3,13.4-35.3,36.7-40.4,65.4c-4-4.4-8.8-8.9-13.6-12.6c9.3-24.4,24.4-42.5,45.1-52.9h-68v7.6c10.6,7.7,19.3,17.4,25.6,29.4
			l-5.7,13.7c-1.7-1.2-6.4-4.3-6.4-4.3c-2.2-9.5-3.8-11.9-8.7-19.2c-1.5-2.6-3.2-5.1-4.8-7.4v24.8c23.1,10.7,40.8,26.5,52.4,48.3
			l-7,16.9c-2.1-1.6-7.9-5.3-7.9-5.3c-2.6-11.8-4.7-14.7-10.7-23.8c-7.1-12.7-16.2-22.3-26.7-29.6v41.1c36.1,11,63.9,32.8,82.5,66.1
			l-8.4,17.5h5.7C179.6,347.2,194.8,326.8,215.3,312.6"/>
		<path class="st1" d="M89.1,292.7V373h64.7C141.9,333.5,119.8,307.7,89.1,292.7"/>
		<path class="st1" d="M215.3,373v-41.8c-9.3,12.6-16.3,26.4-21.1,41.8H215.3z"/>
	</g>
</g>
</svg>
