<svg xmlns="http://www.w3.org/2000/svg" viewBox="0 0 335 186.5"><style>.st0{fill:#fff}.st2{display:none;fill-rule:evenodd;clip-rule:evenodd;fill:#008c3e}</style><g id="Layer_1"><path class="st0" d="M242.5 93.5h5.2v39.2h-5.2zm48.6 39.1h5.2V98.4h10.1v-4.9h-25.3v4.9h10zm-25.2-39.1c-8 0-13.6 5.7-13.6 15.2v23.9h5.2v-14.7h16.8v14.7h5.2v-23.9c.1-9.5-5.5-15.2-13.6-15.2zm8.4 19.5h-16.8v-4.2c0-6.9 3.1-10.5 8.4-10.5 5.3 0 8.4 3.6 8.4 10.5v4.2z"/><path d="M239 99.1c-9-9.4-27.5-7.6-32.5 7.7-.6 1.9-.8 3.9-.9 6.2 0 5.3 2.1 10.1 5.4 13.6 6.9 7.2 19.2 9.1 28.3.2l-3.4-3.6c-9.9 9.6-24.7 2.3-25-10.2 0-4.5 2.3-9.5 6.7-12.2 4.7-3.1 12.1-3.8 18.2 1.9l3.2-3.6z" fill-rule="evenodd" clip-rule="evenodd" fill="#fff"/><path class="st0" d="M153 143.1v5.4h-.9v-5.4h.9zm1.9 5.3h-.9v-4h.9v.6c.3-.4.6-.7 1.3-.7.9 0 1.4.6 1.4 1.6v2.6h-.9v-2.3c0-.6-.3-1-.9-1-.5 0-.9.4-.9 1v2.2zm4.7-1.2c0 .4.2.5.5.5.2 0 .4 0 .6-.1v.8c-.2.1-.5.2-.8.2-.7 0-1.2-.3-1.2-1.2v-2.1h-.5v-.8h.5v-1.1h.9v1.1h1.1v.8h-1.1v1.9zm3.5.6c.5 0 .8-.2 1.1-.5l.5.5c-.4.5-.9.8-1.7.8-1.2 0-2.1-.8-2.1-2.1 0-1.2.8-2.1 2-2.1 1.3 0 1.9 1 1.9 2.2v.3h-3c.2.5.7.9 1.3.9zm.9-1.7c-.1-.6-.4-1.1-1-1.1s-1 .4-1 1.1h2zm2.4 2.3h-.9v-4h.9v.9c.3-.6.7-1 1.4-1v1h-.1c-.8 0-1.4.5-1.4 1.6l.1 1.5zm2.9 0h-.9v-4h.9v.6c.3-.4.6-.7 1.3-.7.9 0 1.4.6 1.4 1.6v2.6h-.9v-2.3c0-.6-.3-1-.9-1-.5 0-.9.4-.9 1v2.2zm6 0v-.5c-.3.3-.7.6-1.3.6-.8 0-1.4-.4-1.4-1.2 0-.9.7-1.3 1.6-1.3.5 0 .8.1 1.1.2v-.2c0-.6-.4-.9-1-.9-.5 0-.8.1-1.2.3l-.3-.7c.4-.2.9-.3 1.5-.3 1.2 0 1.8.6 1.8 1.7v2.4h-.8zm0-1.7c-.2-.1-.6-.2-.9-.2-.6 0-.9.2-.9.7 0 .4.3.6.8.6.6 0 1.1-.3 1.1-.8v-.3zm2.8.5c0 .4.2.5.5.5.2 0 .4 0 .6-.1v.8c-.2.1-.5.2-.8.2-.7 0-1.2-.3-1.2-1.2v-2.1h-.5v-.8h.5v-1.1h.9v1.1h1.1v.8h-1.1v1.9zm1.7-3.4v-.9h1v.9h-1zm.1 4.6v-4h.9v4h-.9zm3.7.1c-1.2 0-2.1-.9-2.1-2.1 0-1.2.9-2.1 2.2-2.1 1.2 0 2.2.9 2.2 2.1-.1 1.2-1 2.1-2.3 2.1zm0-3.4c-.7 0-1.2.6-1.2 1.3 0 .7.5 1.3 1.2 1.3.8 0 1.2-.6 1.2-1.3 0-.7-.5-1.3-1.2-1.3zm3.7 3.3h-.9v-4h.9v.6c.3-.4.6-.7 1.3-.7.9 0 1.4.6 1.4 1.6v2.6h-.9v-2.3c0-.6-.3-1-.9-1-.5 0-.9.4-.9 1v2.2zm6 0v-.5c-.3.3-.7.6-1.3.6-.8 0-1.4-.4-1.4-1.2 0-.9.7-1.3 1.6-1.3.5 0 .8.1 1.1.2v-.2c0-.6-.4-.9-1-.9-.5 0-.8.1-1.2.3l-.3-.7c.4-.2.9-.3 1.5-.3 1.2 0 1.8.6 1.8 1.7v2.4h-.8zm.1-1.7c-.2-.1-.6-.2-.9-.2-.6 0-.9.2-.9.7 0 .4.3.6.8.6.6 0 1.1-.3 1.1-.8v-.3zm1.7 1.7v-5.6h.9v5.6h-.9zm6.4.1c-1.6 0-2.7-1.2-2.7-2.8 0-1.5 1.1-2.8 2.8-2.8 1 0 1.6.3 2.1.8l-.6.7c-.4-.4-.9-.7-1.5-.7-1 0-1.8.8-1.8 1.9 0 1.1.7 1.9 1.8 1.9.7 0 1.1-.3 1.5-.7l.6.6c-.6.7-1.2 1.1-2.2 1.1zm4.6-.7c.5 0 .8-.2 1.1-.5l.5.5c-.4.5-.9.8-1.7.8-1.2 0-2.1-.9-2.1-2.1 0-1.2.8-2.1 2-2.1 1.3 0 1.9 1 1.9 2.2v.3h-3c.2.5.7.9 1.3.9zm.9-1.7c-.1-.6-.4-1.1-1-1.1s-1 .4-1.1 1.1h2.1zm2.4 2.3h-.9v-4h.9v.6c.3-.4.6-.7 1.3-.7.9 0 1.4.6 1.4 1.6v2.6h-.9v-2.3c0-.6-.3-1-.9-1-.5 0-.9.4-.9 1v2.2zm4.7-1.2c0 .4.2.5.5.5.2 0 .4 0 .6-.1v.8c-.2.1-.5.2-.8.2-.7 0-1.2-.3-1.2-1.2v-2.1h-.5v-.8h.5v-1.1h.9v1.1h1.1v.8h-1.1v1.9zm3.5.5c.5 0 .8-.2 1.1-.5l.5.5c-.4.5-.9.8-1.7.8-1.2 0-2.1-.8-2.1-2.1 0-1.2.8-2.1 2-2.1 1.3 0 1.9 1 1.9 2.2v.3h-3c.2.6.7.9 1.3.9zm.9-1.6c-.1-.6-.4-1.1-1-1.1s-1 .4-1 1.1h2zm2.4 2.3h-.9v-4h.9v.9c.3-.6.7-1 1.4-1v1h-.1c-.8 0-1.4.5-1.4 1.6v1.5zm6.1-4v.8h-1v3.2h-.9v-3.2h-.5v-.8h.5v-.3c0-.9.4-1.3 1.2-1.3.3 0 .5 0 .8.1v.8c-.2-.1-.3-.1-.5-.1-.4 0-.5.2-.5.6v.2h.9zm2.3 4.1c-1.2 0-2.1-.9-2.1-2.1 0-1.2.9-2.1 2.2-2.1 1.2 0 2.2.9 2.2 2.1-.2 1.1-1.1 2.1-2.3 2.1zm0-3.4c-.7 0-1.2.6-1.2 1.3 0 .7.5 1.3 1.2 1.3.8 0 1.2-.6 1.2-1.3 0-.7-.5-1.3-1.2-1.3zm3.7 3.3h-.9v-4h.9v.9c.3-.6.7-1 1.4-1v1h-.1c-.8 0-1.4.5-1.4 1.6v1.5zm6.3 0h-.9v-4.5h-1.7v-.9h4.3v.9h-1.7v4.5zm2.7 0h-1v-4h.9v.9c.3-.6.7-1 1.4-1v1h-.1c-.8 0-1.4.5-1.4 1.6l.2 1.5zm3.7.1c-1.2 0-2.1-.9-2.1-2.1 0-1.2.9-2.1 2.2-2.1 1.2 0 2.2.9 2.2 2.1-.1 1.1-1.1 2.1-2.3 2.1zm0-3.4c-.7 0-1.2.6-1.2 1.3 0 .7.5 1.3 1.2 1.3.8 0 1.2-.6 1.2-1.3 0-.7-.5-1.3-1.2-1.3zm5.1 3.4c-.7 0-1.1-.3-1.4-.7v1.9h-.9v-5.3h.9v.7c.3-.4.7-.8 1.4-.8 1 0 1.9.8 1.9 2.1s-.9 2.1-1.9 2.1zm-.2-3.4c-.6 0-1.2.5-1.2 1.3s.6 1.3 1.2 1.3 1.2-.5 1.2-1.3c-.1-.8-.6-1.3-1.2-1.3zm2.7-1.4v-.9h1v.9h-1zm.1 4.7v-4h.9v4h-.9zm3.7.1c-1.2 0-2.1-.9-2.1-2.1 0-1.2.9-2.1 2.1-2.1.8 0 1.2.3 1.6.7l-.6.6c-.3-.3-.6-.5-1-.5-.7 0-1.2.6-1.2 1.3 0 .7.5 1.3 1.2 1.3.4 0 .8-.2 1-.5l.6.6c-.4.4-.8.7-1.6.7zm4.6-.1v-.5c-.3.3-.7.6-1.3.6-.8 0-1.4-.4-1.4-1.2 0-.9.7-1.3 1.6-1.3.5 0 .8.1 1.1.2v-.2c0-.6-.4-.9-1-.9-.5 0-.8.1-1.2.3l-.3-.7c.4-.2.9-.3 1.5-.3 1.2 0 1.8.6 1.8 1.7v2.4h-.8zm.1-1.7c-.2-.1-.6-.2-.9-.2-.6 0-.9.2-.9.7 0 .4.3.6.8.6.6 0 1.1-.3 1.1-.9v-.2zm1.7 1.7v-5.6h.9v5.6h-.9zm9.1 0h-1l-.5-1.3h-2.5l-.6 1.3h-1l2.4-5.4h.9l2.3 5.4zm-2.8-4.3l-.9 2.1h1.8l-.9-2.1zm4.9 5.5c-.7 0-1.3-.2-1.8-.5l.3-.7c.4.3.9.4 1.4.4.8 0 1.3-.4 1.3-1.2v-.3c-.3.4-.8.7-1.4.7-1 0-1.8-.7-1.8-1.9s.9-1.9 1.8-1.9c.7 0 1.1.3 1.4.7v-.6h.9v3.2c.1 1.5-.7 2.1-2.1 2.1zm.1-4.6c-.6 0-1.1.4-1.1 1.1 0 .7.5 1.1 1.1 1.1.6 0 1.2-.5 1.2-1.1 0-.6-.6-1.1-1.2-1.1zm3.8 3.4h-.9v-4h.9v.9c.3-.6.7-1 1.4-1v1c-.8 0-1.4.5-1.4 1.6v1.5zm2-4.7v-.9h1v.9h-1zm0 4.7v-4h.9v4h-.9zm3.7.1c-1.2 0-2.1-.9-2.1-2.1 0-1.2.9-2.1 2.1-2.1.8 0 1.2.3 1.6.7l-.6.6c-.3-.3-.6-.5-1-.5-.7 0-1.2.6-1.2 1.3 0 .7.5 1.3 1.2 1.3.4 0 .8-.2 1-.5l.6.6c-.3.4-.8.7-1.6.7zm4.9-4.2h.9v4h-.9v-.6c-.3.4-.6.7-1.3.7-.9 0-1.4-.6-1.4-1.6v-2.6h.9v2.3c0 .6.3 1 .9 1 .5 0 .9-.4.9-1v-2.2zm1.8 4.1v-5.6h.9v5.6h-.9zm3-1.3c0 .4.2.5.5.5.2 0 .4 0 .6-.1v.8c-.2.1-.5.2-.8.2-.7 0-1.2-.3-1.2-1.2v-2.1h-.5v-.8h.5v-1.1h.9v1.1h1.1v.8H294v1.9zm4.4-2.8h.9v4h-.9v-.6c-.3.4-.6.7-1.3.7-.9 0-1.4-.6-1.4-1.6v-2.6h.9v2.3c0 .6.3 1 .9 1 .5 0 .9-.4.9-1v-2.2zm2.7 4.1h-.9v-4h.9v.9c.3-.6.7-1 1.4-1v1h-.1c-.8 0-1.4.5-1.4 1.6l.1 1.5zm3.6-.7c.5 0 .8-.2 1.1-.5l.5.5c-.4.5-.9.8-1.7.8-1.2 0-2.1-.8-2.1-2.1 0-1.2.8-2.1 2-2.1 1.3 0 1.9 1 1.9 2.2v.3h-3c.3.5.7.9 1.3.9zm.9-1.6c-.1-.6-.4-1.1-1-1.1s-1 .4-1 1.1h2zM151.5 156l.3-.2c.5.6 1 .9 1.9.9.9 0 1.5-.5 1.5-1.2 0-.5-.3-.7-1.2-1.1-1.1-.4-1.5-.8-1.5-1.4 0-.8.8-1.5 1.9-1.5.8 0 1.5.3 1.9.8l-.3.2c-.4-.5-.9-.7-1.6-.7-.9 0-1.5.5-1.5 1.1 0 .5.4.8 1.3 1.1 1 .4 1.4.7 1.4 1.4 0 .9-.8 1.6-2 1.6-1 0-1.7-.4-2.1-1zm6.3-3h.4l-1 3.9h-.4l1-3.9zm.3-1.5h.5l-.1.5h-.5l.1-.5zm1.8 1.5h.4l-.2.7c.4-.5.8-.8 1.5-.8.8 0 1.3.5 1.3 1.2 0 .2 0 .4-.1.5l-.6 2.2h-.4l.6-2.2c0-.1.1-.3.1-.5 0-.6-.4-.9-1-.9-.7 0-1.4.6-1.6 1.5l-.6 2.2h-.4l1-3.9zm4.1 2.3c0-1.3 1.1-2.4 2.3-2.4.8 0 1.3.5 1.5.9l-.3.2c-.2-.4-.6-.8-1.2-.8-1 0-1.9 1-1.9 2 0 .9.6 1.4 1.3 1.4.5 0 .9-.2 1.3-.6l.3.2c-.4.4-.9.7-1.5.7-.9.1-1.8-.5-1.8-1.6zm5 .1c0 .8.5 1.3 1.3 1.3.6 0 1-.2 1.3-.5l.2.3c-.4.3-.8.6-1.6.6-1 0-1.7-.7-1.7-1.6 0-1.2 1-2.4 2.3-2.5 1 0 1.5.7 1.5 1.5 0 .3 0 .5-.1.7H169v.2zm2.9-.6v-.3c0-.6-.3-1.2-1.1-1.2-.9 0-1.5.7-1.8 1.5h2.9zm5.6-2.8l-1.1.4v-.4l1.3-.5h.3l-1.4 5.4h-.4l1.3-4.9zm1.1 4.3l.3-.3c.4.4.8.7 1.3.7s1-.2 1.4-.6c.5-.5.9-1.3.9-2-.3.4-.8.9-1.7.9-1.1 0-1.7-.8-1.7-1.6 0-1 .9-1.9 2.1-1.9.5 0 1 .2 1.3.5.3.3.5.8.5 1.5 0 1.2-.5 2.2-1.1 2.8-.5.5-1.1.8-1.7.8-.7-.1-1.2-.4-1.6-.8zm3.9-3.2c0-.4-.1-.7-.4-.9-.3-.3-.6-.4-1-.4-.9 0-1.6.7-1.6 1.5 0 .6.4 1.2 1.3 1.2s1.7-.6 1.7-1.4zm2.2 3.4c-.3-.3-.5-.8-.5-1.5 0-1.2.5-2.2 1.1-2.8.5-.5 1.1-.8 1.7-.8.7 0 1.2.3 1.6.7l-.3.3c-.3-.4-.7-.6-1.3-.6-.5 0-1 .2-1.4.6-.5.5-.9 1.3-.9 2 .3-.5.9-.9 1.7-.9 1.1 0 1.7.7 1.7 1.6 0 1-.9 1.9-2 1.9-.7 0-1.1-.2-1.4-.5zm2.9-1.3c0-.6-.4-1.2-1.3-1.2-1 0-1.6.7-1.6 1.4 0 .4.1.7.4.9.3.3.6.4 1 .4.8 0 1.5-.7 1.5-1.5zm5.2-3.3h-3.1l.1-.4h3.6l-.1.3-3.6 5.1h-.5l3.6-5zm3.1 4.1l.5-.4c.5.5 1 .8 1.8.8s1.4-.4 1.4-1c0-.4-.3-.7-1.1-1-1-.4-1.5-.7-1.5-1.4 0-.9.8-1.6 2-1.6.8 0 1.5.3 1.9.8l-.4.4c-.4-.4-.9-.7-1.5-.7-.8 0-1.3.5-1.3.9s.3.7 1.2 1c.9.4 1.4.7 1.4 1.4 0 .9-.9 1.6-2 1.6-1.2.2-1.9-.2-2.4-.8zm5.5-.7c0-1.3 1.1-2.4 2.3-2.4.8 0 1.3.4 1.6.9l-.5.3c-.2-.4-.5-.7-1.1-.7-.9 0-1.7.9-1.7 1.9 0 .8.6 1.2 1.2 1.2.5 0 .8-.2 1.2-.5l.3.4c-.4.4-.9.7-1.5.7-1-.1-1.8-.7-1.8-1.8zm5.4-2.3h.6l-1.1 4h-.6l1.1-4zm.4-1.6h.7l-.2.7h-.7l.2-.7zm1.6 3.9c0 .7.5 1.2 1.2 1.2.5 0 .9-.2 1.2-.5l.3.4c-.4.3-.9.6-1.6.6-1 0-1.8-.7-1.8-1.7 0-1.2 1-2.5 2.3-2.5 1 0 1.5.7 1.5 1.5 0 .3-.1.5-.1.7h-3.1c.1.2.1.2.1.3zm2.7-.6v-.3c0-.5-.3-1-1-1-.8 0-1.4.6-1.6 1.3h2.6zm2.4-1.7h.6l-.2.6c.4-.4.8-.7 1.4-.7.8 0 1.3.5 1.3 1.2 0 .2 0 .4-.1.6l-.6 2.2h-.6l.6-2.2c0-.1.1-.3.1-.4 0-.5-.3-.8-.9-.8-.6 0-1.2.5-1.4 1.3l-.6 2.2h-.6l1-4zm4.1 2.3c0-1.3 1.1-2.4 2.3-2.4.8 0 1.3.4 1.6.9l-.5.3c-.2-.4-.5-.7-1.1-.7-.9 0-1.7.9-1.7 1.9 0 .8.6 1.2 1.2 1.2.5 0 .8-.2 1.2-.5l.3.4c-.4.4-.9.7-1.5.7-.9-.1-1.8-.7-1.8-1.8zm5.1 0c0 .7.5 1.2 1.2 1.2.5 0 .9-.2 1.2-.5l.3.4c-.4.3-.9.6-1.6.6-1 0-1.8-.7-1.8-1.7 0-1.2 1-2.4 2.3-2.5 1 0 1.5.7 1.5 1.5 0 .3-.1.5-.1.8H223c.1.1.1.1.1.2zm2.7-.6v-.3c0-.5-.3-1-1-1-.8 0-1.4.6-1.6 1.3h2.6zm4.3 1.5c0-.1 0-.3.1-.4l.6-2.3h-.5l.1-.5h.6l.3-1.2h.6l-.3 1.2h1.2l-.1.5h-1.2l-.6 2.3v.3c0 .3.2.4.5.4.2 0 .4 0 .6-.1l-.1.5c-.2.1-.4.1-.6.1-.8 0-1.2-.3-1.2-.8zm3.1-1c0-1.2 1.1-2.4 2.3-2.4 1.1 0 1.8.7 1.8 1.8 0 1.3-1.1 2.4-2.3 2.4-1.1 0-1.8-.8-1.8-1.8zm3.5-.5c0-.8-.5-1.3-1.2-1.3-.9 0-1.7.9-1.7 1.8 0 .8.5 1.3 1.2 1.3.9 0 1.7-.9 1.7-1.8zm4.3.6c0-1.3 1.1-2.4 2.3-2.4.8 0 1.3.4 1.6.9l-.5.3c-.2-.4-.5-.7-1.1-.7-.9 0-1.7.9-1.7 1.9 0 .8.6 1.2 1.2 1.2.5 0 .8-.2 1.2-.5l.3.4c-.4.4-.9.7-1.5.7-1-.1-1.8-.7-1.8-1.8zm4.6.5c0-.2 0-.4.1-.6l.6-2.2h.6l-.6 2.2c0 .1-.1.3-.1.4 0 .5.3.8.9.8.6 0 1.2-.5 1.4-1.3l.6-2.2h.6l-1.1 4h-.6l.2-.6c-.4.4-.8.7-1.4.7-.7 0-1.2-.5-1.2-1.2zm6.2-4.5h.6l-1.5 5.6h-.6l1.5-5.6zm1.2 4.9c0-.1 0-.3.1-.4l.6-2.3h-.5l.1-.5h.6l.3-1.2h.6l-.3 1.2h1.2l-.1.5h-1.2l-.6 2.3v.3c0 .3.2.4.5.4.2 0 .4 0 .6-.1l-.1.5c-.2.1-.4.1-.6.1-.8 0-1.2-.3-1.2-.8zm4.1-3.3h.6l-1.1 4h-.6l1.1-4zm.3-1.5h.7l-.2.7h-.7l.2-.7zm1.4 1.5h.6l.4 3.3 2.2-3.3h.7l-2.8 4h-.5l-.6-4zm3.9 3c0-.9.7-1.4 1.8-1.4.5 0 1 .1 1.4.2v-.1c0-.1.1-.3.1-.4 0-.5-.4-.8-1.1-.8-.4 0-.8.1-1.1.2l-.1-.5c.4-.1.8-.2 1.3-.2 1 0 1.6.5 1.6 1.2 0 .2 0 .4-.1.5l-.6 2.2h-.6l.2-.6c-.4.4-.8.7-1.5.7-.7.1-1.3-.3-1.3-1zm3-.6l.1-.3c-.3-.1-.8-.2-1.3-.2-.7 0-1.2.4-1.2.9 0 .4.3.7.8.7.7.1 1.4-.4 1.6-1.1zm2.1.9c0-.1 0-.3.1-.4l.6-2.3h-.5l.1-.5h.6l.3-1.2h.6l-.3 1.2h1.2l-.1.5h-1.2l-.6 2.3v.3c0 .3.2.4.5.4.2 0 .4 0 .6-.1l-.1.5c-.2.1-.4.1-.6.1-.8 0-1.2-.3-1.2-.8zm3.6-.9c0 .7.5 1.2 1.2 1.2.5 0 .9-.2 1.2-.5l.3.4c-.4.3-.9.6-1.6.6-1 0-1.8-.7-1.8-1.7 0-1.2 1-2.5 2.3-2.5 1 0 1.5.7 1.5 1.5 0 .3-.1.5-.1.8h-3.1c.1.1.1.1.1.2zm2.7-.6v-.3c0-.5-.3-1-1-1-.8 0-1.4.6-1.6 1.3h2.6zm4.1.5c0-1.3 1.1-2.4 2.3-2.4.8 0 1.3.4 1.6.9l-.5.3c-.2-.4-.5-.7-1.1-.7-.9 0-1.7.9-1.7 1.9 0 .8.6 1.2 1.2 1.2.5 0 .8-.2 1.2-.5l.3.4c-.4.4-.9.7-1.5.7-1 0-1.8-.7-1.8-1.8zm5.9-3.9h.6l-.6 2.3c.4-.4.8-.7 1.4-.7.8 0 1.3.5 1.3 1.2 0 .2 0 .4-.1.6l-.6 2.2h-.6l.6-2.2c0-.1.1-.3.1-.4 0-.5-.3-.8-.9-.8-.6 0-1.2.5-1.4 1.3l-.6 2.2h-.6l1.4-5.7zm3.5 4.6c0-.9.7-1.4 1.8-1.4.5 0 1 .1 1.4.2v-.1c0-.1.1-.3.1-.4 0-.5-.4-.8-1.1-.8-.4 0-.8.1-1.1.2l-.1-.5c.4-.1.8-.2 1.3-.2 1 0 1.6.5 1.6 1.2 0 .2 0 .4-.1.5l-.6 2.2h-.6l.2-.6c-.4.4-.9.7-1.5.7-.7.1-1.3-.3-1.3-1zm3-.6l.1-.3c-.3-.1-.8-.2-1.3-.2-.7 0-1.2.4-1.2.9 0 .4.3.7.8.7.7.1 1.4-.4 1.6-1.1zm2.7-2.4h.6l-.2.6c.4-.4.8-.7 1.4-.7.8 0 1.3.5 1.3 1.2 0 .2 0 .4-.1.6l-.6 2.2h-.6l.6-2.2c0-.1.1-.3.1-.4 0-.5-.3-.8-.9-.8-.6 0-1.2.5-1.4 1.3l-.6 2.2h-.6l1-4zm3.7 4.5l.4-.4c.4.4 1 .6 1.6.6.5 0 .9-.2 1.1-.4.2-.2.4-.5.5-1l.1-.4c-.4.4-.9.7-1.5.7-.8 0-1.6-.5-1.6-1.5 0-1.3 1.1-2.2 2.2-2.2.8 0 1.2.5 1.5 1l.2-.9h.6l-.9 3.4c-.2.6-.4 1-.6 1.2-.4.4-.9.6-1.5.6-.9 0-1.6-.2-2.1-.7zm4-2.9c0-.6-.5-1.1-1.2-1.1-.8 0-1.6.7-1.6 1.6 0 .7.6 1.1 1.2 1.1.8 0 1.6-.8 1.6-1.6zm2.4.8c0 .7.5 1.2 1.2 1.2.5 0 .9-.2 1.2-.5l.3.4c-.4.3-.9.6-1.6.6-1.1 0-1.8-.7-1.8-1.7 0-1.2 1-2.5 2.3-2.5 1 0 1.5.7 1.5 1.5 0 .3-.1.5-.1.7h-3.1c.1.2.1.2.1.3zm2.6-.6v-.3c0-.5-.3-1-1-1-.8 0-1.4.6-1.6 1.3h2.6z"/><path class="st2" d="M153.7 121.7c-2.5-37.3 21.3-27.6 46.6-29.4-.1 33.3-29.4 13.2-46.6 29.4z"/><path class="st2" d="M177 114.1c12.8 0 23.2 4.4 23.2 9.9s-10.4 9.9-23.2 9.9c-12.8 0-23.2-4.4-23.2-9.9 0-5.4 10.4-9.9 23.2-9.9z"/><path class="st0" d="M201.4 124.1v-.7l-.1-.6-.2-.6-.3-.6-.3-.6-.4-.6-.4-.5-.5-.5-.5-.5-.6-.5-.6-.5-.7-.4-.7-.4-.7-.4-.8-.4-.8-.4-.8-.3-.9-.3-.9-.3-.9-.3-1-.3-1-.2-1-.2h-.1l1.5-.4 1.6-.5 1.6-.6 1.5-.8 1.4-1 1.3-1.2 1.2-1.3 1-1.6.9-1.8.7-2 .6-2.2.4-2.5.3-2.7.1-3v-.9h-1l-2.3.1-2.3.1h-17.8l-2.1.1-2 .1-1.9.2-1.9.2-1.8.3-1.8.4-1.7.5-1.6.7-1.5.8-1.4 1-1.3 1.1-1.2 1.3-1.1 1.5-1 1.7-.8 1.8-.7 2-.6 2.2-.4 2.5-.3 2.7-.1 2.9v3.2l.2 3.3v.1l.1 2.2v.7l.1.6.2.6.3.6.3.6.4.6.4.5.5.5.5.5.6.5.6.5.7.4.7.4.7.4.8.4.8.4.8.3.9.3.9.3.9.3 1 .3 1 .2 1 .2 1.1.2 1.1.2 1.1.2 1.1.1 1.1.1 1.2.1 1.2.1h4.8l1.2-.1 1.2-.1 1.1-.1 1.1-.1 1.1-.2 1.1-.2 1.1-.2 1-.2 1-.2 1-.3.9-.3.9-.3.9-.3.8-.3.8-.4.8-.4.7-.4.7-.4.7-.4.6-.5.6-.5.5-.5.5-.5.4-.5.4-.6.3-.6.3-.6.2-.6.1-.5v-.1l-.4-1.1zm-23.3-8.7c3.9.5 7 3.7 7.5 7.6h-7.5v-7.6zM198 96.7l1.1-1.1-.2 2.3-.4 2.3-.5 2-.7 1.8-.8 1.5-.9 1.3-1 1.1-1.1 1-1.2.8-1.3.7-1.4.6-1.5.5-1.6.4-1.6.3-1.7.2-1.8.2-1.8.2-1.9.1-1.8.1h-1.3l-1.2.1-1.2.1-1.1.1-1.1.1-1.1.2-1.1.2-1.1.2-1 .2-1 .2-1 .3-.9.3-.9.3-.9.3-.8.3-.8.4-.8.4-.7.4-.7.4-.7.4-.6.5-.6.5-.1.1v-.3l.4-1.8.6-1.6.7-1.4.8-1.2.9-1.1 1.1-.9 1.2-.8 1.3-.7 1.4-.6 1.5-.6 1.6-.5 1.7-.4 1.7-.4 1.8-.3 1.8-.3 1.9-.3 1.9-.3 1.9-.4 2-.4 1.9-.5 1.9-.5 1.9-.6 1.9-.7 1.9-.8 1.8-.9 1.8-1.1 1.7-1.2 1.8-1.7zm-43.2 15.8l.3-2.5.4-2.3.5-2.1.6-1.8.7-1.6.8-1.4 1-1.3 1-1.1 1.1-1 1.2-.8 1.3-.7 1.4-.6 1.5-.5 1.6-.4 1.7-.3 1.8-.2 1.9-.2 1.9-.1h19.9l2.2-.1-1.4 1.5-1.5 1.3-1.5 1.1-1.6 1-1.7.9-1.7.8-1.8.7-1.8.6-1.9.5-1.9.4-1.9.4-1.9.4-1.9.3-1.9.3-1.9.3-1.8.4-1.8.4-1.8.4-1.7.5-1.6.6-1.6.7-1.5.8-1.4 1-1.3 1.1-1.1 1.3-1 1.5-.3.7.4-.9zm.3 10.5l.2-.4.2-.4.3-.4.3-.4.4-.4.4-.4.2-.2.6-.4 1.7-1 1.7-.8 1.8-.7 1.8-.6 1.9-.5 1.9-.4 1.1-.2-.3.3c-1.9 1.9-3 4.3-3.2 6.9h-11zm14.1 9.2l-1-.2-1-.2-1-.2-.9-.2-.9-.3-.9-.3-.8-.3-.8-.3-.8-.3-.7-.3-.7-.3-.7-.4-.6-.4-.6-.4-.5-.4-.5-.4-.4-.4-.4-.4-.3-.4-.3-.4-.2-.4v-.1H166c.3 2.4 1.4 4.6 3.1 6.4.2.2.3.3.5.4l-.4.2zm6.7.4c-3.8-.5-6.8-3.4-7.5-7.1h7.5v7.1zm0-9.6h-7.5c.4-4 3.6-7.1 7.5-7.6v7.6zm2.2 9.6v-7.1h7.4c-.6 3.6-3.6 6.6-7.4 7.1zm20.7-7.1l-.2.4-.3.4-.3.4-.4.4-.4.4-.5.4-.5.4-.6.4-.6.4-.7.4-.7.3-.7.3-.8.3-.8.3-.8.3-.9.3-.9.3-.9.2-1 .2-1 .2-1 .2-.6.1.5-.5c1.7-1.7 2.8-4 3.1-6.4l11-.1zM188 123c-.2-2.6-1.3-5-3.2-6.9l-.3-.3.4.1 1 .2 1 .2 1 .2.9.2.9.3.9.3.8.3.8.3.8.3.7.3.7.3.7.4.6.4.6.4.5.4.5.4.4.4.4.4.3.4.3.4.2.4.2.4v.1H188zM28.8 148.9h1.4v8.3h-1.4v-8.3zm5.4 2.2h1.2v.9c.4-.7 1.1-1.1 1.9-1.1 1.3 0 2.1.7 2.1 2v4.1h-1.3v-3.8c0-.9-.4-1.3-1.2-1.3-.9 0-1.4.7-1.4 1.6v3.5h-1.3v-5.9zm8.5 0h1v-1.8H45v1.8h1.2v1H45v3.2c0 .5 0 .8.6.8h.6v1c-.3 0-.6.1-.9.1-1.4 0-1.6-.5-1.7-1.5v-3.5h-1v-1.1zm7.9 3.4c0 .9.5 1.8 1.6 1.8.8 0 1.2-.3 1.5-1h1.2c-.3 1.3-1.4 2-2.7 2-1.9 0-2.9-1.3-2.9-3.1 0-1.7 1.1-3.2 2.9-3.2 1.9 0 3 1.7 2.8 3.5h-4.4zm3-.9c0-.8-.6-1.6-1.5-1.6s-1.5.7-1.6 1.6h3.1zm4.8-2.5h1.2v1.2c.1-.6.9-1.3 1.7-1.3h.5v1.3c-.2 0-.4-.1-.6-.1-.9 0-1.6.7-1.6 2v2.8h-1.3v-5.9zm6.6 0h1.2v.9c.4-.7 1.1-1.1 1.9-1.1 1.3 0 2.1.7 2.1 2v4.1H69v-3.8c0-.9-.4-1.3-1.2-1.3-.9 0-1.4.7-1.4 1.6v3.5H65v-5.9zm14.1 4.7c0 .3.1.5.3.5h.3v.9c-.2.1-.6.2-.8.2-.5 0-.9-.2-1-.7-.5.5-1.4.7-2.1.7-1.1 0-2-.6-2-1.7 0-1.5 1.2-1.7 2.3-1.9.9-.2 1.8-.1 1.8-.8 0-.7-.7-.8-1.2-.8-.7 0-1.3.3-1.3.9H74c.1-1.5 1.4-2 2.7-2 1.2 0 2.4.5 2.4 1.7v3zm-1.3-1.7c-.4.3-1 .3-1.6.4-.6.1-1.1.3-1.1 1 0 .6.8.8 1.2.8.6 0 1.5-.3 1.5-1.1v-1.1zm4.5-3h1v-1.8h1.3v1.8h1.2v1h-1.2v3.2c0 .5 0 .8.6.8h.6v1c-.3 0-.6.1-.9.1-1.4 0-1.6-.5-1.7-1.5v-3.5h-1v-1.1zm6.9-2.2h1.3v1.2h-1.3v-1.2zm0 2.2h1.3v6h-1.3v-6zm4.9 3c0-1.8 1.1-3.1 3-3.1s3 1.3 3 3.1-1.1 3.2-3 3.2-3-1.3-3-3.2zm4.7 0c0-1-.5-2.1-1.7-2.1s-1.7 1.1-1.7 2.1.5 2.1 1.7 2.1 1.7-1 1.7-2.1zm4.8-3h1.2v.9c.4-.7 1.1-1.1 1.9-1.1 1.3 0 2.1.7 2.1 2v4.1h-1.3v-3.8c0-.9-.4-1.3-1.2-1.3-.9 0-1.4.7-1.4 1.6v3.5h-1.3v-5.9zm14 4.7c0 .3.1.5.3.5h.3v.9c-.2.1-.6.2-.8.2-.5 0-.9-.2-1-.7-.5.5-1.4.7-2.1.7-1.1 0-2-.6-2-1.7 0-1.5 1.2-1.7 2.3-1.9.9-.2 1.8-.1 1.8-.8 0-.7-.7-.8-1.2-.8-.7 0-1.3.3-1.3.9h-1.3c.1-1.5 1.4-2 2.7-2 1.2 0 2.4.5 2.4 1.7v3zm-1.3-1.7c-.4.3-1 .3-1.6.4-.6.1-1.1.3-1.1 1 0 .6.8.8 1.2.8.6 0 1.5-.3 1.5-1.1v-1.1zm5.2-5.2h1.3v8.3h-1.3v-8.3zm-93.1-16.4H36c3.7 0 4.4 2.1 4.4 3.5s-.7 2.2-1.7 2.7c1.2.4 2.4 1.4 2.4 3.5 0 2.8-2.4 4.2-4.9 4.2h-7.9v-13.9zm4.2 5.4h2.3c.9 0 1.5-.3 1.5-1.1 0-.7-.6-1-1.5-1h-2.3v2.1zm0 5.2h2.5c.9 0 1.7-.3 1.7-1.3 0-.8-.5-1.3-1.5-1.3h-2.7v2.6zm13.7-7.9h-3.9v-2.7h3.9v2.7zm-3.9 1.1h3.9v10.1h-3.9v-10.1zM53 146.7c-3.8 0-5.5-2.5-5.5-5.3s1.7-5.3 5.5-5.3 5.5 2.5 5.5 5.3-1.7 5.3-5.5 5.3zm0-7.8c-1.5 0-1.7 1.4-1.7 2.5s.2 2.5 1.7 2.5 1.7-1.4 1.7-2.5c-.1-1.1-.3-2.5-1.7-2.5zm13.2 7.5h-4.6l-3.3-10.1h4.1l1.6 6.2 1.6-6.2h3.9l-3.3 10.1zm6.8-4.2c.1 1.1.8 2 2 2 .6 0 1.3-.2 1.6-.7h3.6c-.8 2.2-2.9 3.2-5.2 3.2-3.2 0-5.7-1.9-5.7-5.3 0-2.9 2.1-5.3 5.3-5.3 4 0 5.7 2.2 5.7 6.2H73zm3.7-2c0-.9-.7-1.7-1.7-1.7-1.1 0-1.8.6-2 1.7h3.7zm4.8-3.9h3.7v1.6c.6-1.2 1.4-1.9 2.8-1.9.4 0 .8.1 1.1.2v3.4c-.4-.1-.7-.3-1.5-.3-1.5 0-2.3.9-2.3 3.1v4h-3.9v-10.1zm14.3 3c0-.3-.2-.6-.4-.8-.2-.2-.5-.3-.9-.3-.5 0-1.2.1-1.2.8 0 .3.2.4.4.5.6.3 2.1.3 3.4.8 1.3.4 2.4 1.2 2.4 2.8 0 2.8-2.7 3.6-5.1 3.6-2.4 0-5-1-5-3.6H93c0 .4.2.6.5.9.2.2.6.3 1 .3.5 0 1.3-.2 1.3-.8 0-.6-.3-.8-2.1-1.1-2.9-.5-4.1-1.4-4.1-3.2 0-2.5 2.7-3.2 4.8-3.2 2.2 0 4.8.6 4.9 3.2h-3.5zm8.6-4.1h-3.9v-2.7h3.9v2.7zm-3.8 1.1h3.9v10.1h-3.9v-10.1zm10.1 0h2.1v2.4h-2.1v3.5c0 .9.2 1.3 1.2 1.3.3 0 .6 0 .9-.1v2.9c-.8 0-1.7.1-2.5.1-1.6 0-3.4-.3-3.4-3v-4.8h-1.7v-2.4h1.7v-3.1h3.9v3.2zm10.5 9.3c-.3.9-.7 2-1.3 2.8-1 1.3-2.6 1.2-4.1 1.2H114v-3.1h.9c.4 0 .9 0 1.2-.1.2-.1.4-.3.4-.8s-1.5-4.2-1.7-4.8l-1.7-4.7h4.1l1.6 5.8 1.6-5.8h4l-3.2 9.5zm-23.1-43.9c0 .2-.1.4-.1.6-.4 1.4-1.4 2.5-2.6 3.5 7.1 5.5 11.6 14 11.6 23.6h4.9c-.1-11.2-5.5-21.3-13.8-27.7zm-56.8 27.7h4.9c0-8.5 3.6-16.1 9.3-21.6-2-.1-4.1-.3-6-.9-5.1 6.2-8.2 14-8.2 22.5zM84 86c0 4-3.2 7.2-7.2 7.2S69.6 90 69.6 86s3.2-7.2 7.2-7.2c4 .1 7.2 3.3 7.2 7.2zm-18.1 15.6s-1.9-5.6-.8-8c4.3-10.2-8.5-20.2-8.5-20.2s-1.5 4.5-1.5 9.4c0 4.8 1.6 9.7 5.5 12.1 3.3 2 3.9 7.3 3.9 7.3s-2.1-.9-3.1-2.9c-1-1.9-4.2-7.7-17.5-6.6-1.1.1-2.2.4-3.5.5 0 0 1 7.3 9.5 8.9 8.6 1.6 10.9-.6 12.6.3 1 .6 1.6 1.3 1.6 1.3l1.8-2.1z"/><path class="st0" d="M63.8 114.4s-6.7-10 4.8-14.6c9-3.8 19.2-4 22.8-9.9 0 0 5.1 8-1.2 12.5-6.2 4.5-22.9 5.5-26.4 12zm-5.7 19.3s-2.2-3-2.1-6.8c.1-3.8 1.6-5.6 5.8-7.8 4.1-2.1 12.6-4.6 15.7-5.8 2.5-1 5.5-2.3 5.5-2.3s3.5 7.4-2.5 11c-6 3.5-7.4 3.2-13.5 5.5-8.2 3.1-8.9 6.2-8.9 6.2zm76-102.8h2.3l6.1 16h-2.3l-1.7-4.8h-6.6l-1.7 4.8h-2.1l6-16zm-1.5 9.4h5.2l-2.6-7.5h-.1l-2.5 7.5zm11.7-9.4h1.8v16h-1.8v-16zm4.9 0h1.8v16h-1.8v-16zm6.9 2.4h-1.8V31h1.8v2.3zm-1.9 2.1h1.8V47h-1.8V35.4zM169 46.9c-.3.2-.7.3-1.3.3-1 0-1.5-.6-1.6-1.8-1 1.2-2.4 1.8-4 1.8-1 0-1.9-.3-2.6-.8-.7-.5-1.1-1.3-1.1-2.5 0-.7.1-1.2.3-1.6.2-.4.5-.8.9-1 .4-.3.8-.5 1.2-.6.4-.1.9-.2 1.4-.3.5-.1 1-.2 1.5-.2.5-.1.9-.1 1.2-.2.7-.1 1.1-.6 1.1-1.2 0-.4-.1-.8-.2-1l-.6-.6c-.5-.2-1.1-.4-1.7-.3-.8 0-1.4.1-1.9.4-.5.3-.8.9-.9 1.8h-1.8c.1-1.4.6-2.4 1.5-3 .9-.6 2-.9 3.3-.9.5 0 1 0 1.5.1s1 .2 1.3.5c.4.2.7.5 1 1 .2.4.3 1 .3 1.7v6c0 .5 0 .8.1 1 .1.2.2.3.5.3.1 0 .3 0 .6-.1v1.2zm-2.9-5.9c-.4.3-.8.4-1.5.5-.6.1-1.3.2-1.9.3-.6.1-1.2.3-1.6.6-.5.3-.7.8-.7 1.5 0 .6.2 1.1.7 1.3.4.3.9.4 1.5.4s1.1-.1 1.6-.3c.4-.2.8-.4 1.1-.6.5-.6.8-1.1.8-1.7v-2zm5-5.6h1.7v1.8c.8-1.4 2-2.1 3.6-2.1 1.5 0 2.5.4 3.1 1.2.6.8.8 1.8.8 3.1V47h-1.8v-7.8c0-1.5-.8-2.3-2.3-2.3-1.1 0-1.9.4-2.5 1-.6.7-.9 1.6-.9 2.6V47H171V35.4zm20.1 3.7c-.3-1.5-1.2-2.3-2.8-2.3-1.3 0-2.2.5-2.7 1.4-.5.9-.8 1.9-.8 3.2 0 1.1.2 2 .8 2.9.5.9 1.3 1.3 2.5 1.3 1.8 0 2.8-1 3.1-2.8h1.9c-.4 3-2.1 4.5-5 4.5-1.7 0-3-.6-3.9-1.7-.9-1.1-1.3-2.5-1.3-4.2 0-1.8.4-3.3 1.3-4.4.9-1.2 2.2-1.8 4-1.8 1.3 0 2.4.3 3.3.9.9.6 1.4 1.7 1.5 3.1h-1.9zm14 4.2c-.6 2.6-2.2 3.9-4.8 4-1.8 0-3.1-.6-4-1.7-.9-1.1-1.4-2.6-1.4-4.4 0-1.8.5-3.2 1.5-4.3 1-1.1 2.2-1.7 3.8-1.7 2 0 3.3.8 4.1 2.2.8 1.4 1.1 2.9 1 4.4H197c0 1 .2 1.9.8 2.6.6.8 1.5 1.2 2.7 1.2 1.6 0 2.5-.8 2.9-2.3h1.8zm-1.7-3.2c-.1-.9-.4-1.7-1-2.3s-1.3-.9-2.3-.9c-1 0-1.7.3-2.3.9-.6.6-.9 1.4-1 2.3h6.6z"/><path fill="#fffffe" d="M28.8 59.4h277.5v1H28.8z"/></g></svg>